<?xml version="1.0" encoding="utf-8"?>
<!-- Generator: Adobe Illustrator 19.1.0, SVG Export Plug-In . SVG Version: 6.00 Build 0)  -->
<svg version="1.1" id="Layer_1" xmlns="http://www.w3.org/2000/svg" xmlns:xlink="http://www.w3.org/1999/xlink" x="0px" y="0px"
	 viewBox="0 0 650.6 364.4" style="enable-background:new 0 0 650.6 364.4;" xml:space="preserve">
<style type="text/css">
	.st0{fill:#989798;}
	.st1{fill:#1A1A1A;}
	.st2{opacity:0.1;fill:#FFFFFF;}
	.st3{fill:#B3B3B3;}
	.st4{fill:#818181;}
	.st5{fill:#CBCBCB;}
	.st6{enable-background:new    ;}
	.st7{clip-path:url(#SVGID_2_);}
	.st8{fill:#979797;}
	.st9{fill:#FFFFFF;}
	.st10{fill:#59ABDF;}
	.st11{clip-path:url(#SVGID_4_);}
	.st12{fill:#8CC441;}
</style>
<g>
	<g>
		<g>
			<g>
				<path class="st0" d="M631,8.8v140.5c0,4.8-3.9,8.8-8.8,8.8h-62.5c-4.8,0-8.8-3.9-8.8-8.8V8.8c0-4.8,3.9-8.8,8.8-8.8h62.5
					C627.1,0,631,3.9,631,8.8z"/>
			</g>
		</g>
		<g>
			<g>
				<path class="st1" d="M623,18.7v117.9c0,3.9-3.6,7.5-7.6,7.5h-50.7c-4,0-6.7-3.5-6.7-7.5V18.7c0-3.9,2.7-6.7,6.7-6.7h50.7
					c3.3,0,6.2,1.9,7.1,4.8C622.7,17.5,623,18,623,18.7z"/>
			</g>
		</g>
	</g>
	<path class="st1" d="M600.1,152.3h-15.9c-1.2,0-2.2-1-2.2-2.2v-0.7c0-1.2,1-2.2,2.2-2.2h15.9c1.2,0,2.2,1,2.2,2.2v0.7
		C602.3,151.3,601.3,152.3,600.1,152.3z"/>
	<path class="st2" d="M631,75v74.3c0,4.8-3.9,8.8-8.8,8.8h-62.5c-4.8,0-8.8-3.9-8.8-8.8v-3l7.5-6.7L623,82.1L631,75z"/>
	<rect x="581.4" y="6.3" class="st1" width="17.2" height="2"/>
	<circle class="st1" cx="589.6" cy="3" r="0.8"/>
	<circle class="st1" cx="576" cy="4.7" r="1.7"/>
</g>
<g>
	<polygon class="st3" points="138.8,341.9 432.9,242.5 305.7,184.2 1.1,257.1 	"/>
	<polyline class="st4" points="0,256 0,261.4 140.3,364.4 139.8,342 	"/>
	<polygon class="st5" points="145,316 70,270 330,197 408,228 	"/>
	<g>
		<g>
			<g class="st6">
				<defs>
					<polygon id="SVGID_1_" class="st6" points="140.3,364.2 109.6,20.4 445.6,1.1 435.1,250.6 					"/>
				</defs>
				<clipPath id="SVGID_2_">
					<use xlink:href="#SVGID_1_"  style="overflow:visible;"/>
				</clipPath>
				<g class="st7">
					<g>
						<g>
							<g>
								<path class="st8" d="M278.3,200c-1.2,0.3-2.2,0.4-3.1,0.4c-0.9,0-1.7-0.1-2.3-0.4c-0.7-0.2-1.2-0.6-1.7-0.9
									c-0.5-0.4-0.8-0.8-1.1-1.2c-0.2-0.3-0.5-0.8-0.7-1.3c-0.2-0.5-0.4-1.2-0.5-1.9c-0.1-0.8-0.1-1.6,0-2.6
									c0.1-1,0.4-2.1,0.8-3.4c0.5-1.3,0.9-2.7,1.4-4c0.5-1.3,0.9-2.7,1.4-4c0.5-1.3,0.9-2.7,1.4-4c0.4-1.3,0.9-2.6,1.3-3.9
									c0.4-1.1,0.7-2.1,1.1-3.2c0.4-1.1,0.7-2.2,1.1-3.3c0.4-1.1,0.8-2.2,1.1-3.3c0.4-1.1,0.8-2.2,1.2-3.3c0-0.1,0-0.1,0-0.2
									c0-0.1,0-0.1,0.1-0.2c0-0.1,0-0.1,0.1-0.2c0-0.1,0-0.1,0-0.2l0-0.6c-1.9-0.5-3.6-1.2-5.2-2.2c-1.6-1-2.9-2.3-4-3.8
									c-1.1-1.5-2-3.3-2.7-5.2c-0.6-1.9-1-4-1.1-6.3c-0.1-1.8,0-3.5,0.3-5.2c0.3-1.7,0.7-3.4,1.2-5.1c0.6-1.6,1.3-3.2,2.1-4.7
									c0.9-1.5,1.8-2.9,3-4.2c-1-0.2-1.9-0.4-2.9-0.7c-1-0.3-1.9-0.6-2.8-0.9c-0.9-0.4-1.9-0.8-2.8-1.2c-1-0.4-1.9-0.9-2.9-1.5
									c-0.5-0.3-1-0.7-1.4-1.2c-0.4-0.5-0.7-1.1-1-1.7c-0.2-0.6-0.4-1.3-0.4-2c-0.1-0.7,0-1.5,0.1-2.2c0.1-0.7,0.4-1.5,0.7-2.1
									c0.3-0.6,0.7-1.2,1.2-1.7c0.5-0.5,1-0.9,1.5-1.2c0.6-0.3,1.2-0.5,1.8-0.6c0.1,0,0.2,0,0.2,0c0.1,0,0.1,0,0.2,0
									c0.1,0,0.2,0,0.4,0c0.2,0,0.4,0,0.7,0l0.5,0c0.1,0,0.2,0,0.3,0c0.1,0,0.2,0,0.3,0c0.1,0,0.2,0,0.3,0.1c0.1,0,0.2,0,0.3,0.1
									c1.3-0.2,2.6-0.4,3.8-0.6c1.3-0.2,2.5-0.3,3.8-0.5c1.3-0.2,2.5-0.3,3.7-0.5c1.2-0.2,2.5-0.3,3.7-0.4c1.3-0.2,2.7-0.3,4-0.5
									c1.3-0.2,2.7-0.3,4-0.5c1.3-0.2,2.7-0.4,4-0.5c1.3-0.2,2.6-0.4,3.9-0.6c0.3-0.1,0.6-0.1,0.9-0.2c0.3-0.1,0.6-0.1,0.9-0.2
									c0.3-0.1,0.6-0.1,0.9-0.2c0.3-0.1,0.6-0.1,0.9-0.2c0,0,0,0,0.1,0c0,0,0,0,0.1,0c0,0,0.1,0,0.1,0c0,0,0.1,0,0.1,0
									c1.5-0.2,2.9-0.2,4.2,0c1.3,0.2,2.5,0.7,3.5,1.4c1.1,0.7,2,1.6,2.8,2.8c0.8,1.2,1.5,2.5,2.1,4.1c0,0,0,0,0,0.1
									c0,0,0,0,0,0.1c0,0,0,0,0,0.1c0,0,0,0,0,0.1c1-0.1,2-0.3,2.9-0.4c1-0.1,1.9-0.3,2.9-0.4c1-0.1,1.9-0.3,2.9-0.4
									c1-0.1,1.9-0.2,2.8-0.4c1-0.1,2.1-0.3,3.1-0.4c1-0.1,2-0.3,3-0.4c1-0.1,2-0.3,2.9-0.4c1-0.1,1.9-0.3,2.9-0.4
									c0.1,0,0.2,0,0.3,0c0.1,0,0.2,0,0.3,0c0.1,0,0.2,0,0.3,0s0.2,0,0.3,0c0.1,0,0.1,0,0.2,0c0.1,0,0.1,0,0.2,0
									c0.1,0,0.1,0,0.2,0c0.1,0,0.1,0,0.2,0c0-0.6-0.1-1.3,0-2c0-0.7,0.1-1.4,0.2-2.2c0.1-0.8,0.3-1.6,0.6-2.4
									c0.3-0.8,0.7-1.7,1.1-2.5c0.2-0.4,0.5-0.8,0.7-1.1c0.3-0.3,0.6-0.6,0.9-0.8c0.3-0.2,0.6-0.4,1-0.6c0.3-0.2,0.7-0.3,1-0.3
									l2-0.3c0.3-0.1,0.7-0.1,1,0c0.3,0,0.6,0.1,0.9,0.3c0.3,0.1,0.6,0.3,0.8,0.5c0.3,0.2,0.5,0.4,0.7,0.7
									c0.2-0.2,0.4-0.4,0.6-0.5c0.2-0.2,0.4-0.3,0.7-0.4c0.2-0.1,0.5-0.2,0.7-0.3c0.2-0.1,0.5-0.1,0.7-0.2l0.1,0
									c0.1,0,0.3,0,0.6,0c0.3,0,0.6,0,0.9,0.1c0.3,0.1,0.7,0.2,1.1,0.4c0.4,0.2,0.7,0.4,1.1,0.8c0,0,0.1,0,0.1,0c0,0,0.1,0,0.1,0
									s0.1,0,0.1,0c0,0,0.1,0,0.1,0c0.1,0,0.1,0,0.2,0c0.1,0,0.1,0,0.2,0s0.1,0,0.2,0c0.1,0,0.1,0,0.2,0l0.1,0
									c0.4-0.1,0.9-0.1,1.3,0c0.4,0,0.8,0.2,1.1,0.3c0.4,0.2,0.7,0.4,1,0.7c0.3,0.3,0.6,0.6,0.8,1.1c0.4,0.7,0.6,1.3,0.7,2
									c0.1,0.7,0.1,1.3,0.1,1.9c0,0.6-0.1,1.2-0.2,1.6c-0.1,0.5-0.2,0.9-0.3,1.2l0,0l-0.1,5.6l3-0.5c0.1-0.2,0.1-0.4,0.2-0.6
									s0.1-0.3,0.2-0.5c0.1-0.1,0.1-0.3,0.2-0.4c0.1-0.1,0.1-0.3,0.2-0.4c0.3-1,0.8-2.1,1.3-3.3c0.5-1.2,1.1-2.4,1.9-3.6
									c0.8-1.1,1.7-2.2,2.8-3c1.1-0.8,2.4-1.4,3.8-1.7c0.2,0,0.3,0,0.5-0.1c0.2,0,0.3,0,0.5,0c0.2,0,0.3,0,0.5,0
									c0.2,0,0.3,0,0.5,0c0.1,0,0.1,0,0.2,0c0.1,0,0.1,0,0.2,0s0.1,0,0.2,0c0.1,0,0.1,0,0.2,0c0.2,0,0.6,0,0.9,0
									c0.4,0,0.8,0.1,1.2,0.2c0.4,0.1,0.8,0.4,1.2,0.7c0.4,0.4,0.8,0.9,1.1,1.5c0.1,0.2,0.2,0.4,0.3,0.7c0.1,0.2,0.1,0.4,0.2,0.7
									c0.1,0.2,0.1,0.4,0.1,0.7c0,0.2,0,0.4,0.1,0.7c0,0,0.1,0,0.1,0c0,0,0.1,0,0.1,0c0,0,0.1,0,0.1,0c0,0,0.1,0,0.1,0
									c0.7-0.1,1.3-0.2,2-0.3c0.7-0.1,1.3-0.2,2-0.3c0.7-0.1,1.3-0.2,1.9-0.3c0.6-0.1,1.3-0.2,1.9-0.3c0.6-0.1,1.1-0.2,1.7-0.2
									c0.6-0.1,1.1-0.2,1.7-0.2c0.6-0.1,1.1-0.2,1.7-0.3c0.6-0.1,1.1-0.2,1.7-0.3c0.4-0.1,0.7-0.1,1,0c0.3,0,0.7,0.1,1,0.3
									c0.3,0.1,0.6,0.3,0.9,0.6c0.3,0.2,0.6,0.5,0.8,0.8c0.2,0.3,0.4,0.6,0.6,0.9c0.2,0.3,0.3,0.7,0.4,1c0.1,0.4,0.2,0.7,0.3,1.1
									c0.1,0.4,0.1,0.8,0.2,1.2c0.4,0.2,0.9,0.5,1.2,0.9c0.4,0.4,0.7,0.8,0.9,1.4c0.2,0.5,0.4,1.1,0.6,1.7
									c0.1,0.6,0.2,1.3,0.1,2.1c0,0.1,0,0.5-0.1,1c-0.1,0.5-0.2,1.2-0.4,1.9c-0.2,0.7-0.5,1.5-1,2.2c-0.4,0.7-1,1.4-1.7,2
									c0,0.1,0,0.2,0,0.4c0,0.1,0,0.2,0,0.4c0,0.1,0,0.2,0,0.4c0,0.1,0,0.3,0,0.4c0,0,0,0,0,0.1c0,0,0,0,0,0.1c0,0,0,0,0,0.1
									c0,0,0,0,0,0.1c-0.1,1.7-0.4,3.1-0.8,4.2c-0.4,1.1-1,1.9-1.6,2.5c-0.6,0.6-1.2,0.9-1.6,1.2c-0.5,0.2-0.8,0.3-1,0.3
									c-0.6,0.1-1.1,0.2-1.7,0.4c-0.6,0.1-1.1,0.3-1.7,0.4c-0.6,0.2-1.2,0.3-1.7,0.5c-0.6,0.2-1.2,0.3-1.8,0.5
									c-0.6,0.2-1.2,0.3-1.8,0.5c-0.6,0.2-1.2,0.3-1.9,0.5c-0.6,0.2-1.3,0.3-1.9,0.5c-0.6,0.2-1.3,0.3-1.9,0.4c0,0-0.1,0-0.1,0
									s-0.1,0-0.1,0.1c-0.1,0-0.1,0-0.2,0.1c-0.1,0-0.1,0-0.2,0.1c-0.1,0-0.1,0.1-0.2,0.1c-0.1,0-0.1,0.1-0.2,0.1
									c-0.1,0-0.1,0.1-0.2,0.1c-0.1,0-0.1,0.1-0.2,0.1c0,0,0,0.1,0,0.1s0,0.1,0,0.1c0,0,0,0.1,0,0.1c0,0,0,0.1,0,0.1
									c0.1,0.4,0.2,0.7,0.2,1.1c0,0.4,0.1,0.8,0,1.2c0,0.4-0.1,0.8-0.2,1.3c-0.1,0.4-0.2,0.8-0.4,1.2c-0.1,0.4-0.3,0.8-0.5,1.2
									c-0.2,0.4-0.4,0.7-0.7,1c-0.2,0.3-0.5,0.6-0.8,0.8c-0.3,0.2-0.6,0.4-0.9,0.6c-0.3,0.2-0.7,0.3-1,0.5c-0.3,0.1-0.6,0.3-1,0.4
									c-0.3,0.1-0.6,0.2-0.9,0.3c-0.3,0.1-0.6,0.2-0.9,0.2c-1.1,0.2-2.2,0.3-3.1,0.2c-1-0.1-1.9-0.4-2.7-0.9
									c-0.8-0.5-1.6-1.2-2.2-2c-0.7-0.9-1.2-1.9-1.7-3.1c-0.1,0-0.3,0-0.4-0.1c-0.1,0-0.3,0-0.4-0.1c-0.1,0-0.2,0-0.4-0.1
									c-0.1,0-0.2,0-0.3-0.1c0,0.4,0,0.8,0,1.3c0,0.4,0,0.9,0,1.3c0,0.4,0,0.9,0,1.3c0,0.4,0,0.9,0,1.3c0,1.4-0.2,2.7-0.5,3.7
									c-0.3,1.1-0.8,2-1.3,2.7c-0.5,0.7-1.2,1.3-1.8,1.8c-0.7,0.4-1.4,0.7-2.1,0.9l-0.1,0c-0.1,0-0.3,0.1-0.4,0.1
									c-0.1,0-0.3,0-0.4,0c-0.1,0-0.2,0-0.4,0c-0.1,0-0.2,0-0.4,0c0,0,0,0,0,0.1c0,0,0,0,0,0.1c0,0,0,0,0,0.1c0,0,0,0,0,0.1
									c-0.3,0.4-0.6,0.8-0.9,1.1c-0.3,0.3-0.7,0.6-1,0.9c-0.4,0.3-0.7,0.5-1.1,0.7c-0.4,0.2-0.8,0.3-1.3,0.4c0,0-0.1,0-0.1,0
									c0,0-0.1,0-0.1,0c0,0-0.1,0-0.1,0c0,0-0.1,0-0.1,0c-0.1,0-0.2,0-0.4,0c-0.2,0-0.3,0-0.5,0c-0.2,0-0.4,0-0.7-0.1
									c-0.2,0-0.5-0.1-0.7-0.2c-0.2,0.4-0.5,0.8-0.8,1.2c-0.3,0.4-0.6,0.7-1,1c-0.4,0.3-0.8,0.5-1.2,0.8c-0.4,0.2-0.9,0.4-1.4,0.5
									c0,0-0.1,0-0.1,0c0,0-0.1,0-0.1,0c0,0-0.1,0-0.1,0c0,0-0.1,0-0.1,0c-0.5,0.1-1,0.2-1.4,0.1c-0.5,0-0.9-0.1-1.3-0.2
									c-0.4-0.1-0.8-0.3-1.2-0.6c-0.4-0.3-0.7-0.6-1-1c-0.4-0.5-0.7-1.1-1-1.8c-0.2-0.6-0.4-1.3-0.5-1.9c-0.1-0.6-0.1-1.3-0.1-1.8
									c0-0.6,0-1.1,0.1-1.5c-0.1,0-0.1,0-0.2,0c-0.1,0-0.1,0-0.2,0c-0.1,0-0.1,0-0.2,0s-0.1,0-0.2,0c0,0-0.1,0-0.1,0
									c0,0-0.1,0-0.1,0c0,0-0.1,0-0.1,0c0,0-0.1,0-0.1,0c-1.1,0.3-2.2,0.5-3.3,0.8c-1.1,0.3-2.3,0.6-3.6,0.8
									c-1.3,0.3-2.6,0.6-3.9,0.9c-1.4,0.3-2.8,0.6-4.4,1c0.1,0.2,0.2,0.4,0.2,0.6c0.1,0.2,0.1,0.4,0.2,0.6c0,0.2,0.1,0.4,0.1,0.7
									c0,0.2,0,0.5,0,0.7c0,0.5,0,1-0.1,1.4c-0.1,0.5-0.2,0.9-0.4,1.3s-0.3,0.8-0.6,1.2c-0.2,0.4-0.5,0.8-0.7,1.1
									c-0.3,0.8-0.6,1.5-0.8,2.3c-0.3,0.8-0.6,1.5-0.8,2.2c-0.3,0.7-0.5,1.5-0.8,2.2c-0.3,0.7-0.5,1.4-0.8,2.2
									c-0.5,1.3-1,2.6-1.5,3.9c-0.5,1.3-1,2.6-1.4,3.9c-0.5,1.3-0.9,2.6-1.4,3.9c-0.5,1.3-0.9,2.7-1.4,4.1c-0.5,1.3-1,2.6-1.7,3.7
									c-0.7,1.1-1.4,2.1-2.3,2.9c-0.8,0.8-1.8,1.6-2.8,2.2c-1,0.6-2.1,1-3.3,1.3l-0.1,0c-1.1,0.3-2.2,0.6-3.3,0.9
									c-1.1,0.3-2.2,0.6-3.2,0.8c-1.1,0.3-2.1,0.6-3.2,0.8c-1.1,0.3-2.1,0.6-3.2,0.8c-1,0.3-2.1,0.6-3.1,0.8
									c-1,0.3-2.1,0.6-3.1,0.8c-1,0.3-2.1,0.6-3.1,0.8c-1,0.3-2,0.5-3,0.8L278.3,200 M439.4,1.5L122.4,19.6
									c-1.8,0.1-3.4,0.6-4.9,1.4c-1.5,0.8-2.8,1.9-3.8,3.2c-1.1,1.3-1.9,2.9-2.4,4.6c-0.5,1.7-0.7,3.5-0.5,5.4L137,326.9
									c0.1,1.5,0.6,2.8,1.2,3.9c0.7,1.1,1.6,1.9,2.7,2.6c1.1,0.6,2.3,1,3.7,1c1.4,0.1,2.8-0.2,4.3-0.7l8.8-3.2l-0.4-4.5
									c0-0.1,0-0.2,0-0.3c0-0.1,0.1-0.2,0.1-0.3c0.1-0.1,0.1-0.2,0.2-0.2c0.1-0.1,0.2-0.1,0.3-0.2l58.2-20.6c0.1,0,0.2,0,0.3,0
									c0.1,0,0.1,0,0.2,0.1c0.1,0,0.1,0.1,0.1,0.2c0,0.1,0.1,0.2,0.1,0.2l0.2,4.2L391,246.7l0.1-3.6c0-0.1,0-0.2,0-0.2
									c0-0.1,0.1-0.1,0.1-0.2c0-0.1,0.1-0.1,0.1-0.2c0.1,0,0.1-0.1,0.2-0.1l35.4-12.5c0.1,0,0.1,0,0.2,0c0,0,0.1,0,0.1,0.1
									c0,0,0.1,0.1,0.1,0.1c0,0.1,0,0.1,0,0.2l-0.1,3.4l3-1.1c0.8-0.3,1.6-0.8,2.3-1.4c0.7-0.7,1.4-1.5,1.9-2.4
									c0.6-0.9,1-1.9,1.3-3c0.3-1.1,0.5-2.2,0.6-3.3l8.9-211.7c0.1-1.3-0.1-2.6-0.3-3.7c-0.3-1.1-0.7-2.1-1.2-3
									c-0.5-0.8-1.2-1.5-1.9-2C441.1,1.7,440.2,1.5,439.4,1.5"/>
								<path class="st8" d="M426.9,229.8l-35.4,12.5c-0.1,0-0.1,0.1-0.2,0.1c-0.1,0-0.1,0.1-0.1,0.2c0,0.1-0.1,0.1-0.1,0.2
									c0,0.1,0,0.2,0,0.2l-0.1,3.6l0,1.6c0,0.1,0,0.1,0,0.2c0,0.1,0.1,0.1,0.1,0.1c0,0,0.1,0.1,0.1,0.1s0.1,0,0.2,0l35.3-12.8
									c0.1,0,0.1-0.1,0.2-0.1s0.1-0.1,0.1-0.2c0-0.1,0.1-0.1,0.1-0.2s0-0.1,0-0.2l0.1-1.5l0.1-3.4c0-0.1,0-0.1,0-0.2
									c0-0.1,0-0.1-0.1-0.1c0,0-0.1-0.1-0.1-0.1C427,229.8,427,229.8,426.9,229.8"/>
								<path class="st8" d="M216.3,304.4L158,325.1c-0.1,0-0.2,0.1-0.3,0.2c-0.1,0.1-0.2,0.1-0.2,0.2c-0.1,0.1-0.1,0.2-0.1,0.3
									c0,0.1,0,0.2,0,0.3l0.4,4.5l0.2,1.9c0,0.1,0,0.2,0.1,0.3c0,0.1,0.1,0.1,0.2,0.2s0.2,0.1,0.2,0.1s0.2,0,0.3,0l58-21
									c0.1,0,0.2-0.1,0.2-0.1c0.1-0.1,0.1-0.1,0.2-0.2c0.1-0.1,0.1-0.2,0.1-0.3c0-0.1,0-0.2,0-0.3l-0.1-1.9l-0.2-4.2
									c0-0.1,0-0.2-0.1-0.2c0-0.1-0.1-0.1-0.1-0.2c-0.1,0-0.1-0.1-0.2-0.1C216.5,304.4,216.4,304.4,216.3,304.4"/>
								<polyline class="st8" points="435.4,232.7 426.7,235.9 391.4,248.6 216.7,311.9 158.7,332.9 138.2,340.3 140.3,364.2
									434.6,250.8 435.4,232.7 								"/>
								<path class="st9" d="M285,192.4c-0.4,0.1-0.8,0.2-1.2,0.3c-0.4,0.1-0.8,0.2-1.2,0.3c-0.4,0.1-0.8,0.2-1.2,0.3
									c-0.4,0.1-0.8,0.2-1.2,0.3c0.4-0.1,0.8-0.2,1.2-0.3c0.4-0.1,0.8-0.2,1.2-0.3c0.4-0.1,0.8-0.2,1.2-0.3
									C284.2,192.6,284.6,192.5,285,192.4 M296.4,189.4c0.5-0.1,1-0.2,1.5-0.4c0.5-0.1,1-0.2,1.5-0.4c0.5-0.1,1-0.2,1.5-0.4
									c0.5-0.1,1-0.2,1.5-0.4c-0.4,0.1-0.8,0.2-1.2,0.3c-0.4,0.1-0.8,0.2-1.2,0.3c-0.4,0.1-0.8,0.2-1.2,0.3
									c-0.4,0.1-0.8,0.2-1.2,0.3c-0.1,0-0.2,0-0.3,0.1c-0.1,0-0.2,0-0.3,0.1c-0.1,0-0.2,0-0.3,0.1
									C296.6,189.4,296.5,189.4,296.4,189.4 M319.5,154.2C319.5,154.2,319.5,154.2,319.5,154.2
									C319.5,154.2,319.4,154.2,319.5,154.2c-0.1,0.1-0.1,0.1-0.1,0.2s0,0.1,0,0.1l0,0.1l0.5-0.1c0,0,0,0-0.1,0c0,0,0-0.1-0.1-0.1
									C319.7,154.3,319.6,154.2,319.5,154.2C319.6,154.2,319.5,154.2,319.5,154.2 M319.3,154.2l-0.4,0.1c-0.6,1.6-1.2,3.3-1.7,4.9
									c-0.6,1.6-1.1,3.3-1.7,4.9c-0.6,1.6-1.1,3.3-1.7,4.9c-0.6,1.7-1.1,3.3-1.7,5c0.6-1.6,1.2-3.2,1.8-4.7
									c0.6-1.6,1.2-3.2,1.8-4.8c0.6-1.6,1.2-3.3,1.8-5C318.1,157.8,318.7,156,319.3,154.2 M341.1,140.9c0.8-0.1,1.5-0.1,2,0
									c0.6,0.1,1,0.4,1.4,0.8c0.3,0.4,0.6,1,0.7,1.7c0.1,0.7,0.1,1.6,0,2.7c0,0.3-0.1,0.7-0.1,1.1c0,0.4,0,0.8,0,1.1
									c0.1,0.4,0.1,0.7,0.3,0.9c0.2,0.2,0.4,0.4,0.7,0.5c-0.2-0.1-0.3-0.4-0.4-0.6c-0.1-0.3-0.1-0.6-0.1-0.9c0-0.3,0-0.7,0-1.1
									c0-0.3,0.1-0.7,0.1-1c0.1-1.2,0.2-2.2,0.1-3c-0.1-0.8-0.3-1.4-0.7-1.8c-0.4-0.4-0.9-0.6-1.5-0.7
									C342.9,140.6,342.1,140.7,341.1,140.9 M351.5,116.1l-3,0.6c0,1.3,0,2.5,0,3.8c0,1.3,0,2.5,0,3.8c0,1.3,0,2.5,0,3.8
									c0,1.3,0,2.5,0,3.8l3.2-0.7c0,1.2,0,2.3,0.1,3.3c0,1,0.1,2,0.2,3c0.1,1,0.2,2,0.3,3c0.1,1,0.3,2.1,0.5,3.2
									c0.1,0.3,0.1,0.7,0.1,1c0,0.3,0,0.7,0.1,0.9c0,0.3,0.1,0.5,0.3,0.6c0.2,0.1,0.4,0.2,0.8,0.1c0,0,0.1,0,0.1,0c0,0,0,0,0.1,0
									s0,0,0.1,0c0,0,0,0,0.1,0c0.4-0.1,0.7-0.2,0.9-0.4c0.2-0.2,0.4-0.4,0.4-0.7s0.1-0.6,0.1-0.9c0-0.3,0-0.7,0-1.1
									c0-0.7,0-1.4,0-2.1c0-0.7,0-1.3,0-2c0-0.6,0-1.3,0-1.9c0-0.6,0-1.3,0-1.9c0,0.3,0,0.6,0,0.9c0,0.3,0,0.6,0,0.9
									c0,0.3,0,0.6,0,0.9c0,0.3,0,0.6,0,0.9c0,0.2,0,0.4,0,0.6c0,0.2,0,0.4,0,0.6c0,0.2,0,0.4,0,0.6c0,0.2,0,0.4,0,0.6
									c0,0,0,0,0,0s0,0,0,0s0,0,0,0s0,0,0,0c0,0,0,0.1,0,0.1s0,0.1,0,0.1c0,0,0,0.1,0,0.1c0,0,0,0.1,0,0.1c0,0.4,0,0.7,0,1.1
									c0,0.4-0.1,0.7-0.2,1.1s-0.2,0.6-0.5,0.8c-0.2,0.2-0.5,0.4-0.9,0.5c0,0,0,0,0,0c0,0,0,0,0,0c0,0,0,0,0,0c0,0,0,0,0,0h0
									c0,0,0,0,0,0c0,0,0,0,0,0s0,0,0,0s0,0,0,0c-0.4,0.1-0.7,0-0.8-0.2c-0.2-0.2-0.3-0.5-0.3-0.9c0-0.4-0.1-0.8-0.1-1.2
									c0-0.4,0-0.8-0.1-1.1c-0.4-1.9-0.6-3.9-0.8-5.9c-0.2-2-0.2-4-0.3-6.1c0-2,0-4.1,0-6.2c0-2.1,0-4.1-0.1-6.2
									c0-0.1,0-0.2,0-0.3c0-0.1,0-0.2,0-0.3c0-0.1,0-0.2,0-0.3c0-0.1,0-0.2,0-0.3c0-0.1,0-0.1,0-0.2c0-0.1,0-0.1,0-0.2
									c0-0.1,0-0.1,0-0.2S351.5,116.1,351.5,116.1 M365.2,113.5l-3.1,0.6c0,0.5,0,1,0,1.6c0,0.5,0,1,0,1.5c0,0.5,0,1,0,1.5
									c0,0.5,0,1,0,1.5c0,1,0,2,0,3c0,1,0,2,0,3c0,1,0,2,0,3c0,1,0,2,0,3c0-0.3,0-0.6,0-0.9c0-0.3,0-0.6,0-0.9c0-0.3,0-0.6,0-0.8
									c0-0.3,0-0.5,0-0.7l3.7-0.8c0.2,0,0.4,0,0.6,0c0.2,0,0.5,0.1,0.8,0.2c0.3,0.1,0.6,0.2,1,0.2c0.4,0.1,0.8,0.1,1.3,0.2
									c0.2,0,0.4,0.1,0.6,0.1c0.2,0.1,0.4,0.1,0.5,0.2c0.2,0.1,0.3,0.2,0.4,0.4c0.1,0.2,0.2,0.4,0.3,0.6c0.3,1,0.6,1.9,1.1,2.6
									c0.4,0.7,0.9,1.2,1.4,1.6c0.5,0.4,1.1,0.6,1.8,0.7c0.6,0.1,1.3,0,2.1-0.1c0.2,0,0.5-0.1,0.7-0.2c0.2-0.1,0.5-0.2,0.7-0.2
									c0.2-0.1,0.5-0.2,0.7-0.3c0.3-0.1,0.5-0.2,0.8-0.4c0-0.1-0.1-0.3-0.1-0.4c0-0.1-0.1-0.3-0.1-0.4c0-0.1-0.1-0.3-0.1-0.4
									c0-0.1-0.1-0.2-0.1-0.4c-0.3,0.1-0.5,0.3-0.8,0.4c-0.3,0.1-0.5,0.2-0.8,0.3c-0.3,0.1-0.5,0.2-0.8,0.3
									c-0.2,0.1-0.5,0.1-0.7,0.2c0,0,0,0-0.1,0s0,0-0.1,0c0,0,0,0-0.1,0s0,0-0.1,0l0,0c0,0,0,0-0.1,0s0,0-0.1,0c0,0,0,0-0.1,0
									c0,0,0,0-0.1,0c-0.5,0.1-1,0.1-1.5,0.1c-0.5-0.1-0.9-0.2-1.3-0.4c-0.4-0.2-0.8-0.6-1.1-1c-0.3-0.4-0.6-1-0.9-1.7
									c0,0,0,0,0,0c0,0,0,0,0,0c0,0,0,0,0,0s0,0,0,0c0-0.1,0-0.1-0.1-0.2c0-0.1,0-0.1-0.1-0.2c0-0.1,0-0.1-0.1-0.2s0-0.1-0.1-0.2
									c-0.1-0.2-0.2-0.5-0.3-0.7c-0.1-0.2-0.3-0.4-0.4-0.6c-0.2-0.2-0.3-0.4-0.5-0.5c-0.2-0.1-0.4-0.2-0.6-0.2
									c-1-0.1-1.8-0.4-2.4-0.7c-0.6-0.4-1.1-0.8-1.4-1.4c-0.3-0.6-0.5-1.2-0.6-1.9c-0.1-0.7-0.2-1.5-0.1-2.3c0-0.4,0-0.8,0-1.2
									c0-0.4,0-0.8,0.1-1.2c0-0.4,0-0.8,0.1-1.2c0-0.4,0-0.8,0-1.2c0-0.1,0-0.2,0-0.3c0-0.1,0-0.2,0-0.3c0-0.1,0-0.2,0-0.3
									c0-0.1,0-0.2,0-0.3c0,0,0-0.1,0-0.1c0,0,0-0.1,0-0.1c0,0,0-0.1,0-0.1s0-0.1,0-0.1c0-0.1,0-0.2,0-0.3c0-0.1,0-0.2,0-0.3
									c0-0.1,0-0.2,0-0.3C365.2,113.7,365.2,113.6,365.2,113.5 M380.6,99.9c0,0.1,0,0.1,0,0.2c0,0.1,0,0.1,0,0.2
									c0,0.1,0,0.1-0.1,0.2c0,0.1,0,0.1-0.1,0.2c-0.4,1.3-0.7,2.6-1,3.8c-0.3,1.3-0.5,2.5-0.7,3.8c-0.2,1.3-0.3,2.5-0.5,3.7
									c-0.1,1.2-0.2,2.5-0.2,3.7c0,0.8,0,1.6,0,2.5c0,0.8,0.1,1.6,0.1,2.4c0.1,0.8,0.2,1.6,0.3,2.4c0.1,0.8,0.2,1.6,0.4,2.4l4.8-1
									c0.1,0,0.2,0,0.3-0.1c0.1,0,0.3-0.1,0.5-0.1c0.2,0,0.4-0.1,0.6-0.1c0.2,0,0.4-0.1,0.6-0.1l0,0c1.2-0.3,2.4-0.6,3.7-0.9
									c1.2-0.3,2.4-0.7,3.7-1c1.2-0.4,2.4-0.7,3.6-1c1.2-0.3,2.4-0.6,3.6-0.9c0.2,0,0.3-0.1,0.4-0.2c0.1-0.1,0.2-0.2,0.3-0.3
									c0.1-0.1,0.1-0.2,0.2-0.4s0.1-0.3,0.1-0.4c-0.1,0-0.1,0.1-0.2,0.1c-0.1,0-0.1,0.1-0.2,0.1c-0.1,0-0.2,0.1-0.2,0.1
									c-0.1,0-0.2,0-0.2,0.1c-1.2,0.2-2.4,0.5-3.6,0.7c-1.2,0.2-2.4,0.5-3.6,0.7c-1.2,0.2-2.4,0.5-3.6,0.7
									c-1.2,0.2-2.4,0.5-3.7,0.7c-0.3,0.1-0.6,0.1-0.8,0.1c-0.3,0-0.5-0.1-0.7-0.2c-0.2-0.1-0.4-0.3-0.5-0.5
									c-0.1-0.2-0.2-0.5-0.2-0.9c0,0,0,0,0,0c0,0,0,0,0,0s0,0,0,0c0,0,0,0,0,0c0-0.4,0.1-0.6,0.2-0.9c0.1-0.2,0.3-0.4,0.5-0.5
									c0.2-0.1,0.4-0.2,0.7-0.3c0.2-0.1,0.5-0.1,0.7-0.2c0.1,0,0.1,0,0.2,0c0.1,0,0.1,0,0.2,0c0.1,0,0.1,0,0.2,0s0.1,0,0.2,0
									c0,0,0.1,0,0.1,0s0.1,0,0.1,0c0,0,0.1,0,0.1,0s0.1,0,0.1,0c0,0,0.1,0,0.1,0s0.1,0,0.1,0s0.1,0,0.1,0s0.1,0,0.1,0
									c0.1,0,0.3-0.1,0.4-0.1c0.1,0,0.3-0.1,0.4-0.1c0.1,0,0.3-0.1,0.4-0.1c0.1,0,0.3-0.1,0.4-0.1c0.3-0.1,0.6-0.1,1-0.2
									c0.3-0.1,0.6-0.1,1-0.2c0.3-0.1,0.6-0.1,1-0.2c0.3-0.1,0.6-0.1,1-0.2c0.3,0,0.5-0.1,0.8-0.1c0.3-0.1,0.5-0.1,0.8-0.2
									c0.3-0.1,0.5-0.1,0.8-0.2c0.3-0.1,0.5-0.1,0.8-0.2c0.3-0.1,0.6-0.1,0.9-0.2c0.3-0.1,0.6-0.1,0.9-0.2
									c0.3-0.1,0.6-0.1,0.9-0.2c0.3-0.1,0.6-0.1,0.9-0.2l0.1-4.2c-0.3,0.1-0.6,0.1-0.9,0.2c-0.3,0.1-0.6,0.1-0.9,0.2
									c-0.3,0.1-0.6,0.1-0.9,0.2c-0.3,0.1-0.6,0.1-0.9,0.2c-0.6,0.1-1.2,0.2-1.8,0.3c-0.6,0.1-1.2,0.2-1.8,0.3
									c-0.6,0.1-1.2,0.2-1.8,0.3c-0.6,0.1-1.2,0.2-1.8,0.3c-0.2,0-0.5,0.1-0.7,0.1c-0.2,0-0.4,0-0.6-0.1c-0.2-0.1-0.4-0.2-0.5-0.4
									c-0.1-0.2-0.2-0.4-0.2-0.8c0,0,0,0,0,0c0,0,0,0,0,0c0,0,0,0,0,0c0,0,0,0,0,0c0-0.4,0.1-0.7,0.2-1c0.1-0.3,0.3-0.5,0.5-0.6
									c0.2-0.2,0.4-0.3,0.7-0.4c0.3-0.1,0.5-0.1,0.8-0.2c0.1,0,0.2,0,0.4-0.1c0.1,0,0.2,0,0.4-0.1c0.1,0,0.2,0,0.4-0.1
									c0.1,0,0.2,0,0.4-0.1c0,0,0,0,0,0c0,0,0,0,0,0c0,0,0,0,0,0c0,0,0,0,0,0c0.2,0,0.3-0.1,0.5-0.1c0.2,0,0.3-0.1,0.5-0.1
									c0.2,0,0.3-0.1,0.5-0.1c0.2,0,0.3-0.1,0.5-0.1c0.3-0.1,0.6-0.1,0.9-0.2c0.3-0.1,0.6-0.1,0.9-0.2c0.3-0.1,0.6-0.1,0.9-0.2
									c0.3-0.1,0.6-0.1,0.9-0.2c0.3-0.1,0.6-0.1,0.9-0.2c0.3-0.1,0.6-0.1,0.9-0.2c0.3-0.1,0.6-0.1,0.9-0.2
									c0.3-0.1,0.6-0.1,0.9-0.2l0-1.5l1.4-0.3c0-0.2,0.1-0.5,0.1-0.7c0-0.2,0.1-0.4,0.1-0.6c0-0.2,0-0.4,0.1-0.5
									c0-0.2,0-0.3,0-0.4c0-0.1,0-0.1,0-0.2s0-0.1,0-0.2c0-0.1,0-0.1,0-0.2c0-0.1,0-0.1,0-0.2c-0.1,0.2-0.2,0.4-0.3,0.6
									c-0.1,0.2-0.3,0.3-0.4,0.4c-0.2,0.1-0.3,0.2-0.5,0.3c-0.2,0.1-0.4,0.1-0.6,0.2c-0.2,0-0.5,0.1-0.7,0.1
									c-0.2,0-0.5,0.1-0.7,0.1c-0.2,0-0.5,0.1-0.7,0.1c-0.2,0-0.5,0.1-0.7,0.1c-0.1,0-0.3,0.1-0.4,0.1c-0.1,0-0.3,0.1-0.4,0.1
									c-0.1,0-0.3,0.1-0.4,0.1c-0.1,0-0.3,0.1-0.4,0.1c-0.2,0-0.5,0.1-0.7,0.1c-0.2,0-0.5,0.1-0.7,0.1c-0.2,0-0.5,0.1-0.7,0.1
									c-0.2,0-0.5,0.1-0.7,0.1c-0.3,0.1-0.7,0.1-1,0.2c-0.3,0.1-0.7,0.1-1,0.2c-0.3,0.1-0.7,0.1-1,0.2c-0.3,0.1-0.7,0.1-1,0.2
									c-0.2,0-0.3,0.1-0.5,0.1c-0.2,0-0.3,0.1-0.5,0.1c-0.2,0-0.3,0.1-0.5,0.1c-0.2,0-0.3,0.1-0.5,0.1c0,0-0.1,0-0.1,0
									s-0.1,0-0.1,0c0,0-0.1,0-0.1,0c0,0-0.1,0-0.1,0c0,0-0.1,0-0.1,0c0,0-0.1,0-0.1,0s-0.1,0-0.1,0s-0.1,0-0.1,0
									c-0.1,0-0.1,0-0.2,0c-0.1,0-0.1,0-0.2,0c-0.1,0-0.1,0-0.2,0s-0.1,0-0.2,0c-0.2,0-0.3,0-0.5,0.1c-0.2,0-0.3,0-0.5,0
									c-0.1,0-0.3-0.1-0.4-0.2c-0.1-0.1-0.2-0.2-0.3-0.4c0,0.1,0,0.2-0.1,0.3s0,0.2,0,0.3c0,0.1,0,0.2,0,0.3s0,0.2,0,0.3
									c0,0,0,0.1,0,0.2c0,0.1,0,0.2,0,0.3c0,0.1,0,0.3,0,0.5c0,0.2,0,0.4,0,0.6l-4.2,0.8c0.1-0.7,0.2-1.5,0.3-2.2
									c0.1-0.8,0.3-1.6,0.4-2.3c0.1-0.8,0.3-1.6,0.5-2.3c0.2-0.7,0.3-1.4,0.5-2.1c0.1-0.3,0.2-0.6,0.2-0.8
									c0.1-0.2,0.1-0.4,0.1-0.6c0-0.2,0-0.3,0-0.4C380.7,100.1,380.7,100,380.6,99.9 M353.2,101.6c0,0.1,0,0.2,0,0.2s0,0.1,0,0.2
									c0,0.1,0,0.1,0,0.2c0,0.1,0,0.1,0,0.2c0,0,0,0,0,0c0,0,0,0,0,0c0,0,0,0,0,0c0,0,0,0,0,0c0-0.1,0-0.1,0-0.2
									c0-0.1,0-0.1,0-0.2s0-0.1,0-0.2c0-0.1,0-0.1,0-0.2c0,0,0,0,0-0.1s0,0,0-0.1S353.2,101.7,353.2,101.6
									C353.2,101.6,353.2,101.6,353.2,101.6 M345.6,102c0,0.2,0,0.4,0,0.6c0,0.2,0,0.4,0,0.6c0,0.2,0,0.4,0.1,0.6
									c0,0.2,0.1,0.4,0.1,0.7c0,0.2,0.1,0.4,0.1,0.6c0,0.2,0,0.4,0,0.5c0,0.2,0,0.3,0,0.5c0,0.2,0,0.3,0,0.5
									c0-0.2,0.1-0.4,0.1-0.7c0-0.2,0-0.5,0-0.7c0-0.3,0-0.5-0.1-0.8c0-0.3-0.1-0.6-0.1-0.9c0-0.1,0-0.2,0-0.3c0-0.1,0-0.2,0-0.4
									c0-0.1,0-0.2,0-0.4C345.7,102.2,345.7,102.1,345.6,102 M359.5,99.5L359.5,99.5c-0.4,0.1-0.6,0.3-0.7,0.6
									c-0.1,0.3-0.2,0.8-0.2,1.3c0,0.5,0,1,0,1.5c0,0.5,0.1,1,0.1,1.3c0,0.8,0,1.5,0.1,2.2c0.1,0.7,0.1,1.5,0.2,2.3
									c0.1,0.8,0.1,1.7,0.2,2.6c0.1,1,0.1,2,0.1,3.2l-3.1,0.6c0,0.6,0,1.1,0,1.7c0,0.6,0,1.1,0,1.7c0,0.6,0,1.1,0,1.7
									c0,0.6,0,1.1,0,1.7c0,0.7,0,1.4,0,2.1c0,0.7,0,1.4,0,2.1c0,0.7,0,1.4,0,2.1c0,0.7,0,1.4,0,2.1l3.1-0.6c0,0.7,0,1.5,0,2.4
									c0,0.9,0,1.8,0,2.8c0,1,0,2,0,3c0,1,0,2.1,0,3.1c0,0.3,0,0.7,0,1c0,0.3,0.1,0.6,0.2,0.8c0.1,0.2,0.2,0.4,0.4,0.5
									c0.2,0.1,0.4,0.1,0.7,0l0,0c0.3-0.1,0.6-0.2,0.8-0.3c0.2-0.1,0.3-0.3,0.4-0.5s0.2-0.5,0.2-0.7c0-0.3,0-0.6,0.1-0.9
									c0-0.1,0-0.3,0-0.4c0-0.1,0-0.3,0-0.4c0-0.1,0-0.3,0-0.4c0-0.1,0-0.3,0-0.4c0,0.3,0,0.7-0.1,1c0,0.3-0.1,0.6-0.2,0.9
									c-0.1,0.3-0.2,0.5-0.4,0.7c-0.2,0.2-0.4,0.3-0.7,0.4c0,0,0,0,0,0s0,0,0,0c0,0,0,0,0,0c0,0,0,0,0,0l0,0c0,0,0,0-0.1,0
									c0,0,0,0-0.1,0s0,0-0.1,0s0,0-0.1,0c-0.3,0-0.4-0.1-0.6-0.3c-0.2-0.2-0.3-0.4-0.3-0.7c-0.1-0.3-0.1-0.6-0.1-0.9
									c0-0.3,0-0.7,0-1c0-3,0.1-6,0.1-9c0-3,0.1-6.1,0.1-9.1c0-3,0.1-6.1,0.1-9.2c0-3.1,0.1-6.1,0.1-9.2c0-0.3,0-0.6,0-0.9
									c0-0.3,0-0.6,0.1-0.9c0.1-0.3,0.1-0.5,0.2-0.8c0.1-0.2,0.2-0.4,0.4-0.6c0,0,0-0.1-0.1-0.1c0,0-0.1-0.1-0.1-0.1
									c0,0-0.1,0-0.2,0C359.6,99.4,359.6,99.4,359.5,99.5 M265,111c1.7,1,3.3,1.7,4.9,2.4c1.6,0.6,3.1,1.1,4.7,1.5
									c1.5,0.4,3.1,0.6,4.7,0.7c1.6,0.1,3.2,0.1,4.9,0.1l0.1,5.1c-1.7,0.7-3.3,1.8-4.7,3c-1.5,1.3-2.8,2.7-3.8,4.4
									c-1.1,1.7-2,3.5-2.5,5.4c-0.6,1.9-0.9,4-0.8,6.1c0.1,2,0.5,3.8,1.2,5.4c0.7,1.6,1.6,2.9,2.7,4c1.1,1.1,2.5,2,3.9,2.5
									c1.5,0.6,3.1,0.9,4.7,0.9l0.1,5.3c0,0.1,0,0.2,0.1,0.4c0,0.1,0.1,0.3,0.1,0.4c0,0.2,0,0.3,0,0.5c0,0.2,0,0.4-0.1,0.6
									c-0.9,2.6-1.8,5.1-2.6,7.6c-0.9,2.5-1.7,5.1-2.6,7.6c-0.8,2.5-1.7,5.1-2.6,7.6c-0.9,2.5-1.7,5.1-2.6,7.6
									c-0.3,0.9-0.5,1.6-0.5,2.3c0,0.6,0.2,1.1,0.5,1.4c0.3,0.3,0.7,0.5,1.3,0.6c0.6,0.1,1.3,0,2.1-0.2c-0.7,0.1-1.3,0.2-1.7,0.1
									c-0.5-0.1-0.8-0.2-1.1-0.5c-0.3-0.3-0.4-0.6-0.5-1.1c0-0.5,0-1,0.2-1.7c0-0.1,0-0.1,0-0.2c0-0.1,0-0.1,0.1-0.2
									c0-0.1,0-0.1,0.1-0.2c0-0.1,0-0.1,0.1-0.2c0,0,0-0.1,0-0.1c0,0,0-0.1,0-0.1s0-0.1,0-0.1s0-0.1,0-0.1
									c0.9-2.6,1.8-5.1,2.7-7.7c0.9-2.5,1.8-5.1,2.8-7.6c0.9-2.5,1.8-5.1,2.8-7.6c0.9-2.5,1.8-5.1,2.7-7.6c0-0.1,0.1-0.2,0.1-0.3
									s0.1-0.2,0.1-0.3c0-0.1,0.1-0.2,0.1-0.2c0-0.1,0.1-0.2,0.1-0.2c0.2-0.4,0.4-0.7,0.6-1c0.2-0.3,0.5-0.5,0.7-0.7
									c0.3-0.2,0.5-0.4,0.8-0.5c0.3-0.2,0.6-0.3,1-0.4c0,0,0.1,0,0.1,0c0,0,0.1,0,0.1,0c0,0,0.1,0,0.1,0c0,0,0.1,0,0.1,0l0,0
									c0,0,0,0,0,0c0,0,0,0,0,0c0,0,0,0,0,0c0,0,0,0,0,0c0.2,0,0.5-0.1,0.7-0.1c0.2,0,0.5-0.1,0.7-0.1c0.2,0,0.5-0.1,0.7-0.1
									c0.2-0.1,0.5-0.1,0.7-0.2c0.2,0,0.4-0.1,0.7-0.1c0.2,0,0.4-0.1,0.7-0.1c0.2,0,0.4-0.1,0.7-0.1c0.2,0,0.4-0.1,0.7-0.1
									c0,0,0,0,0.1,0s0,0,0.1,0c0,0,0,0,0.1,0c0,0,0,0,0.1,0c0.1,0,0.1,0,0.2,0c0.1,0,0.1,0,0.2,0c0.1,0,0.1,0,0.2,0
									c0.1,0,0.1,0,0.2,0c0.2,0,0.4-0.1,0.7-0.1c0.2,0,0.4-0.1,0.7-0.1c0.2,0,0.4-0.1,0.7-0.1c0.2,0,0.4-0.1,0.7-0.1
									c0.4-0.1,0.8-0.2,1.2-0.3c0.4-0.1,0.8-0.2,1.2-0.3c0.4-0.1,0.8-0.2,1.2-0.3c0.4-0.1,0.8-0.2,1.1-0.3
									c0.3-0.1,0.6-0.1,0.9-0.2c0.3-0.1,0.6-0.1,0.9-0.2c0.3-0.1,0.6-0.1,0.9-0.2c0.3-0.1,0.6-0.1,0.9-0.2
									c0.3-0.1,0.5-0.1,0.8-0.2c0.3-0.1,0.5-0.1,0.8-0.2c0.3-0.1,0.5-0.1,0.8-0.2c0.3-0.1,0.5-0.1,0.8-0.2c0,0,0.1,0,0.1,0
									c0,0,0.1,0,0.1,0c0,0,0.1,0,0.1,0c0,0,0.1,0,0.1,0c0.1,0,0.1,0,0.2,0c0.1,0,0.1,0,0.2,0s0.1,0,0.2,0c0.1,0,0.1,0,0.2,0
									c0.1,0,0.2,0,0.3-0.1c0.1,0,0.2,0,0.3-0.1c0.1,0,0.2,0,0.3-0.1c0.1,0,0.2,0,0.3-0.1c0.3-0.1,0.6-0.1,0.8-0.2
									c0.3-0.1,0.6-0.1,0.8-0.2c0.3-0.1,0.6-0.1,0.8-0.2c0.3-0.1,0.5-0.1,0.8-0.2c0,0,0.1,0,0.1,0s0.1,0,0.1,0c0,0,0.1,0,0.1,0
									c0,0,0.1,0,0.1,0h0h0c0,0,0,0,0,0c0,0,0,0,0,0s0,0,0,0s0,0,0,0c0.1,0,0.2,0,0.3-0.1c0.1,0,0.2,0,0.2,0c0.1,0,0.2,0,0.2,0
									s0.1,0,0.2,0l0-3.6c-2.2,0.5-4.5,0.9-6.7,1.4c-2.3,0.5-4.5,0.9-6.8,1.4c-2.3,0.5-4.6,0.9-6.9,1.4c-2.3,0.5-4.7,1-7,1.5
									c-2.2,0.5-4.4,0.5-6.2,0.2c-1.9-0.4-3.6-1.1-5-2.2c-1.4-1.1-2.6-2.6-3.4-4.3c-0.8-1.8-1.3-3.8-1.4-6.1
									c-0.1-2.5,0.3-4.8,1-7.1c0.7-2.2,1.8-4.3,3.3-6.1c1.4-1.8,3.1-3.3,5.1-4.5c2-1.2,4.1-2,6.5-2.5c1.6-0.3,3.2-0.6,4.8-0.9
									c1.6-0.3,3.1-0.6,4.7-0.9c1.6-0.3,3.1-0.6,4.7-0.8c1.5-0.3,3.1-0.6,4.6-0.8l0-3.6l1.6-0.3c0,0,0-0.1-0.1-0.1
									c0,0,0-0.1-0.1-0.1c0,0,0-0.1-0.1-0.1s0-0.1-0.1-0.1c-1.2,0.2-2.4,0.5-3.6,0.7c-1.2,0.3-2.4,0.5-3.6,0.8
									c-1.2,0.3-2.4,0.5-3.6,0.7c-1.2,0.2-2.4,0.5-3.6,0.7c-2.5,0.4-5,0.8-7.4,1c-2.5,0.2-5,0.3-7.4,0.1c-2.5-0.2-5-0.6-7.4-1.2
									c-2.5-0.7-4.9-1.6-7.4-3c0,0-0.1,0-0.1,0c0,0-0.1,0-0.1,0c0,0-0.1,0-0.1,0s-0.1,0-0.1,0l-0.1,0l0,0.4l0-0.2l0-0.2l0,0l0,0
									L265,111"/>
								<path class="st9" d="M266.3,111L266.3,111l0,0.2l0,0.2L266.3,111 M319.3,154.5l0-0.1c0,0,0-0.1,0-0.1s0-0.1,0-0.1s0,0,0,0
									c0,0,0,0,0,0c0,0,0.1,0,0.1,0s0.1,0.1,0.1,0.1c0,0,0,0.1,0.1,0.1c0,0,0,0,0.1,0L319.3,154.5 M345.6,102c0-0.5,0-1,0-1.5
									c0-0.5,0.1-1,0.2-1.5c0.1-0.5,0.2-0.9,0.3-1.3c0.1-0.4,0.3-0.7,0.5-0.9c0.2,0,0.3-0.1,0.5-0.1c0.2,0,0.3-0.1,0.5-0.1
									c0.2,0,0.3-0.1,0.5-0.1c0.2,0,0.3-0.1,0.5-0.1c0,1.7,0,3.4,0,5.2c0,1.7,0,3.4,0,5.1c0,1.7,0,3.3,0,5c0,1.7,0,3.3,0,4.9
									l3-0.6c0-1.1,0.1-2.3,0.3-3.4c0.1-1.1,0.3-2.3,0.5-3.4c0.2-1.1,0.4-2.2,0.5-3.4c0.1-1.1,0.3-2.2,0.3-3.4c0,0,0,0,0,0
									c0,0,0,0,0,0c0,0,0,0,0,0c0,0,0,0,0,0c0-0.1,0-0.1,0-0.2c0-0.1,0-0.1,0-0.2c0-0.1,0-0.1,0-0.2s0-0.2,0-0.2
									c0-0.1,0-0.1,0-0.2c0-0.1,0-0.1,0-0.2c0-0.1,0-0.1,0-0.2c0-0.1,0-0.1,0-0.2c0,0,0,0,0-0.1c0,0,0,0,0-0.1c0,0,0,0,0-0.1
									c0,0,0,0,0-0.1c0-0.3,0-0.5,0.1-0.8c0-0.3,0.1-0.5,0.2-0.8c0.1-0.2,0.2-0.4,0.4-0.6c0.2-0.2,0.4-0.3,0.6-0.4c0,0,0,0,0.1,0
									s0,0,0.1,0s0,0,0.1,0s0,0,0.1,0h0c0,0,0,0,0,0c0,0,0,0,0,0c0,0,0,0,0,0c0,0,0,0,0,0c0.4-0.1,0.7,0,0.9,0.2
									c0.2,0.2,0.3,0.4,0.4,0.7c0.1,0.3,0.1,0.6,0.1,1c0,0.3,0,0.7,0,1c0,1.2,0,2.4,0,3.6c0,1.2,0,2.4,0,3.6c0,1.2,0,2.4,0,3.6
									c0,1.2,0,2.4,0,3.6l3.1-0.6c0-1.2,0-2.2-0.1-3.2c-0.1-1-0.1-1.8-0.2-2.6c-0.1-0.8-0.1-1.6-0.2-2.3c-0.1-0.7-0.1-1.5-0.1-2.2
									c0-0.4,0-0.8-0.1-1.3c0-0.5-0.1-1,0-1.5c0-0.5,0.1-1,0.2-1.3c0.1-0.3,0.4-0.6,0.7-0.6l0,0c0.1,0,0.2,0,0.2,0
									c0.1,0,0.1,0,0.2,0c0,0,0.1,0,0.1,0.1c0,0,0.1,0.1,0.1,0.1c0,0,0.1-0.1,0.1-0.1c0.1,0,0.1-0.1,0.2-0.1s0.1-0.1,0.2-0.1
									c0.1,0,0.1,0,0.2-0.1c0,0,0,0,0,0c0,0,0,0,0,0c0,0,0,0,0,0c0,0,0,0,0,0h0l0,0c0,0,0,0,0,0c0,0,0,0,0,0s0,0,0,0s0,0,0,0
									c0.3,0,0.5,0.1,0.7,0.2c0.2,0.2,0.3,0.4,0.4,0.7c0.1,0.3,0.1,0.6,0.2,1c0,0.3,0,0.7,0,1c0,1,0,2,0,3c0,1,0,2,0,3
									c0,1,0,2,0,3c0,1,0,2,0,3l3.1-0.6c0-0.2,0.1-0.4,0.2-0.5c0.1-0.2,0.2-0.3,0.2-0.5c0.1-0.1,0.2-0.3,0.3-0.3
									c0.1-0.1,0.3-0.2,0.4-0.2c0.3-0.1,0.7-0.2,1-0.4c0.3-0.2,0.6-0.4,0.8-0.6c0.3-0.2,0.5-0.5,0.7-0.7c0.2-0.3,0.4-0.5,0.6-0.8
									c0.6-1,1.1-2.1,1.6-3.3c0.5-1.2,0.9-2.5,1.4-3.6c0.5-1.2,1.1-2.2,1.8-3c0.7-0.8,1.7-1.4,2.8-1.6c0,0,0,0,0,0c0,0,0,0,0,0
									c0,0,0,0,0,0s0,0,0,0v0c0,0,0,0,0,0c0,0,0,0,0,0c0,0,0,0,0,0c0,0,0,0,0,0c0.1,0,0.2,0,0.3,0c0.1,0,0.2,0,0.3,0
									c0.1,0,0.2,0,0.3,0c0.1,0,0.2,0,0.3,0c0.4,0,0.7,0,1,0c0.3,0,0.5,0.1,0.7,0.1c0.2,0.1,0.3,0.2,0.4,0.4
									c0.1,0.2,0.1,0.4,0.1,0.7c0,0.1,0,0.1,0,0.2c0,0.1,0,0.2,0,0.2c0,0.1,0,0.2,0,0.3c0,0.1,0,0.2-0.1,0.3
									c0,0.1,0.1,0.1,0.1,0.3c0,0.1,0,0.2,0,0.4c0,0.2-0.1,0.4-0.1,0.6c-0.1,0.2-0.1,0.5-0.2,0.8c-0.2,0.6-0.4,1.3-0.5,2.1
									c-0.2,0.7-0.3,1.5-0.5,2.3c-0.1,0.8-0.3,1.6-0.4,2.3c-0.1,0.8-0.2,1.5-0.3,2.2l4.2-0.8c0-0.2,0-0.4,0-0.6c0-0.2,0-0.3,0-0.5
									c0-0.1,0-0.2,0-0.3c0-0.1,0-0.2,0-0.2c0-0.1,0-0.2,0-0.3s0-0.2,0-0.3c0-0.1,0-0.2,0-0.3s0-0.2,0.1-0.3c0,0,0-0.1,0-0.1
									c0,0,0-0.1,0-0.1c0,0,0-0.1,0-0.1s0-0.1,0-0.1c0,0,0,0,0-0.1c0,0,0,0,0-0.1s0,0,0-0.1c0,0,0,0,0-0.1c0-0.3,0.1-0.6,0.1-0.8
									c0.1-0.2,0.2-0.5,0.4-0.6c0.2-0.2,0.3-0.3,0.5-0.4c0.2-0.1,0.4-0.2,0.6-0.2c0.2,0,0.4-0.1,0.7-0.1c0.2,0,0.4-0.1,0.7-0.1
									c0.2,0,0.4-0.1,0.7-0.1c0.2,0,0.4-0.1,0.7-0.1c0.2,0,0.4-0.1,0.6-0.1c0.2,0,0.4-0.1,0.6-0.1c0.2,0,0.4-0.1,0.6-0.1
									c0.2,0,0.4-0.1,0.6-0.1c0,0,0.1,0,0.1,0c0,0,0.1,0,0.1,0c0,0,0.1,0,0.1,0s0.1,0,0.1,0l0,0c0.1,0,0.1,0,0.2,0
									c0.1,0,0.1,0,0.2,0c0.1,0,0.1,0,0.2,0s0.1,0,0.2,0c0.4-0.1,0.8-0.1,1.1-0.2c0.4-0.1,0.8-0.1,1.1-0.2
									c0.4-0.1,0.8-0.1,1.1-0.2c0.4-0.1,0.7-0.1,1.1-0.2c0.4-0.1,0.9-0.2,1.3-0.2c0.4-0.1,0.9-0.1,1.3-0.2
									c0.4-0.1,0.8-0.1,1.3-0.2c0.4-0.1,0.8-0.1,1.3-0.2c0.2,0,0.4,0,0.6,0c0.2,0,0.3,0.1,0.5,0.3c0.1,0.1,0.2,0.3,0.3,0.5
									c0.1,0.2,0.1,0.4,0.1,0.6c0,0.1,0,0.1,0,0.2s0,0.1,0,0.2s0,0.1,0,0.2s0,0.1,0,0.2c0,0.1,0,0.1,0,0.2c0,0.1,0,0.1,0,0.2
									c0,0.1,0,0.1,0,0.2s0,0.1,0,0.2c0,0.1,0,0.2,0,0.4c0,0.2,0,0.3-0.1,0.5c0,0.2,0,0.4-0.1,0.6c0,0.2-0.1,0.5-0.1,0.7l-1.4,0.3
									l0,1.5c0.3-0.1,0.6-0.1,0.9-0.2c0.3-0.1,0.6-0.1,0.9-0.2c0.3-0.1,0.6-0.1,0.9-0.2c0.3-0.1,0.6-0.1,0.9-0.2
									c0.2,0,0.5,0,0.7,0c0.2,0,0.4,0.1,0.6,0.2c0.2,0.1,0.3,0.3,0.4,0.5c0.1,0.2,0.1,0.5,0.1,0.8c0,0.4-0.1,0.6-0.2,0.9
									c-0.1,0.2-0.3,0.4-0.5,0.6c-0.2,0.1-0.4,0.2-0.6,0.3c-0.2,0.1-0.4,0.1-0.7,0.2c-0.3,0.1-0.6,0.1-0.9,0.2
									c-0.3,0.1-0.6,0.1-0.9,0.2c-0.3,0.1-0.6,0.1-0.9,0.2c-0.3,0.1-0.6,0.1-0.9,0.2l-0.1,4.2c0.1,0,0.1,0,0.2,0
									c0.1,0,0.1,0,0.2,0c0.1,0,0.1,0,0.2,0s0.1,0,0.2,0c0.2,0,0.4-0.1,0.7-0.1c0.2,0,0.4,0,0.6,0.1c0.2,0.1,0.3,0.2,0.4,0.4
									c0.1,0.2,0.2,0.4,0.1,0.7c0,0,0,0,0,0c0,0,0,0,0,0s0,0,0,0c0,0,0,0,0,0c0,0.2,0,0.4-0.1,0.5c-0.1,0.2-0.1,0.3-0.2,0.5
									c-0.1,0.1-0.2,0.3-0.3,0.4c-0.1,0.1-0.2,0.2-0.4,0.3c0,0.2,0,0.3-0.1,0.4s-0.1,0.3-0.2,0.4c-0.1,0.1-0.2,0.2-0.3,0.3
									c-0.1,0.1-0.2,0.1-0.4,0.2c-1.2,0.2-2.4,0.5-3.6,0.9c-1.2,0.3-2.4,0.7-3.6,1c-1.2,0.4-2.4,0.7-3.7,1
									c-1.2,0.3-2.4,0.6-3.7,0.9l0,0c-0.2,0-0.4,0.1-0.6,0.1c-0.2,0-0.4,0.1-0.6,0.1c-0.2,0-0.3,0.1-0.5,0.1
									c-0.1,0-0.2,0.1-0.3,0.1l-4.8,1c0.1,0.5,0.2,1.1,0.3,1.6c0.1,0.5,0.2,1.1,0.4,1.6c0.1,0.5,0.3,1.1,0.4,1.6
									c0.2,0.5,0.3,1.1,0.5,1.6c0,0-0.1,0-0.1,0.1c0,0-0.1,0-0.1,0.1c0,0-0.1,0-0.1,0.1s-0.1,0-0.1,0.1c0,0.1,0.1,0.2,0.1,0.4
									c0,0.1,0.1,0.3,0.1,0.4c0,0.1,0.1,0.3,0.1,0.4c0,0.1,0.1,0.3,0.1,0.4c-0.3,0.1-0.5,0.2-0.8,0.4c-0.3,0.1-0.5,0.2-0.7,0.3
									c-0.2,0.1-0.5,0.2-0.7,0.2c-0.2,0.1-0.5,0.1-0.7,0.2c-0.7,0.2-1.4,0.2-2.1,0.1c-0.6-0.1-1.2-0.3-1.8-0.7
									c-0.5-0.4-1-0.9-1.4-1.6c-0.4-0.7-0.8-1.5-1.1-2.6c-0.1-0.2-0.2-0.4-0.3-0.6c-0.1-0.2-0.3-0.3-0.4-0.4
									c-0.2-0.1-0.3-0.2-0.5-0.2c-0.2-0.1-0.4-0.1-0.6-0.1c-0.5,0-0.9-0.1-1.3-0.2c-0.4-0.1-0.7-0.2-1-0.2
									c-0.3-0.1-0.6-0.1-0.8-0.2c-0.2,0-0.4,0-0.6,0l-3.7,0.8c0,0.2,0,0.5,0,0.7c0,0.3,0,0.5,0,0.8c0,0.3,0,0.6,0,0.9
									c0,0.3,0,0.6,0,0.9c0,0.5,0,1,0,1.6c0,0.5,0,1,0,1.6c0,0.5,0,1,0,1.6c0,0.5,0,1,0,1.6c0,0,0,0.1,0,0.1s0,0.1,0,0.1
									c0,0,0,0.1,0,0.1c0,0,0,0.1,0,0.1c0,0.1,0,0.3,0,0.4c0,0.1,0,0.3,0,0.4c0,0.1,0,0.3,0,0.4c0,0.1,0,0.3,0,0.4
									c0,0.3,0,0.7-0.1,0.9c0,0.3-0.1,0.5-0.2,0.7s-0.2,0.4-0.4,0.5c-0.2,0.1-0.4,0.2-0.8,0.3l0,0c-0.3,0.1-0.6,0.1-0.7,0
									c-0.2-0.1-0.3-0.2-0.4-0.5c-0.1-0.2-0.2-0.5-0.2-0.8c0-0.3,0-0.6,0-1c0-1,0-2.1,0-3.1c0-1,0-2.1,0-3c0-1,0-1.9,0-2.8
									c0-0.9,0-1.7,0-2.4l-3.1,0.6c0,0.4,0,0.9,0,1.3c0,0.4,0,0.9,0,1.3c0,0.4,0,0.9,0,1.3c0,0.4,0,0.9,0,1.3c0,0.6,0,1.3,0,1.9
									c0,0.6,0,1.3,0,1.9c0,0.6,0,1.3,0,2c0,0.7,0,1.4,0,2.1c0,0.4,0,0.8,0,1.1c0,0.3,0,0.6-0.1,0.9s-0.2,0.5-0.4,0.7
									c-0.2,0.2-0.5,0.3-0.9,0.4c0,0,0,0-0.1,0c0,0,0,0-0.1,0s0,0-0.1,0c0,0,0,0-0.1,0c-0.4,0.1-0.7,0-0.8-0.1
									c-0.2-0.1-0.3-0.4-0.3-0.6c0-0.3-0.1-0.6-0.1-0.9c0-0.3,0-0.7-0.1-1c-0.2-1.1-0.4-2.2-0.5-3.2c-0.1-1-0.2-2-0.3-3
									c-0.1-1-0.1-2-0.2-3c0-1-0.1-2.1-0.1-3.3l-3.2,0.7c0,1.2,0,2.4,0,3.5c0,1.2,0,2.4,0,3.5c0,1.2,0,2.4,0,3.6
									c0,1.2,0,2.4,0,3.6c0,0.4,0,0.7,0,1.1c0,0.4,0,0.8,0,1.1c-0.1,0.4-0.2,0.7-0.4,1c-0.2,0.3-0.5,0.5-0.9,0.6c0,0,0,0,0,0
									c0,0,0,0,0,0c0,0,0,0,0,0c0,0,0,0,0,0c-0.1,0-0.2,0-0.3,0c-0.1,0-0.2,0-0.3,0c-0.1,0-0.2,0-0.2-0.1s-0.1-0.1-0.2-0.1
									c-0.3-0.1-0.5-0.2-0.7-0.5c-0.2-0.2-0.3-0.6-0.3-0.9c-0.1-0.4-0.1-0.7,0-1.1c0-0.4,0.1-0.7,0.1-1.1c0.1-1.1,0.1-2,0-2.7
									c-0.1-0.7-0.3-1.3-0.7-1.7c-0.3-0.4-0.8-0.7-1.4-0.8c-0.6-0.1-1.2-0.1-2,0c0,0,0,0,0,0s0,0,0,0c0,0,0,0,0,0c0,0,0,0,0,0
									c0,0-0.1,0-0.1,0c0,0-0.1,0-0.1,0s-0.1,0-0.1,0c0,0-0.1,0-0.1,0c-1.4,0.3-2.8,0.7-4.2,1c-1.4,0.3-2.8,0.6-4.2,1
									c-1.4,0.3-2.8,0.6-4.2,0.9c-1.4,0.3-2.9,0.6-4.3,0.9c-0.4,0.1-0.8,0.2-1.3,0.3c-0.4,0.1-0.8,0.2-1.3,0.3
									c-0.4,0.1-0.8,0.2-1.3,0.3c-0.4,0.1-0.9,0.2-1.3,0.3l0,3.6c0.3,0,0.6,0,0.9,0.1c0.2,0.1,0.4,0.2,0.5,0.5
									c0.1,0.2,0.1,0.5,0.1,0.9c0,0.4-0.2,0.9-0.4,1.5c0,0,0,0.1,0,0.1c0,0,0,0.1,0,0.1c0,0,0,0.1,0,0.1c0,0,0,0.1,0,0.1
									c0,0.1-0.1,0.2-0.1,0.3c0,0.1-0.1,0.2-0.1,0.3c0,0.1-0.1,0.2-0.1,0.3c0,0.1-0.1,0.2-0.1,0.3l0.4-0.1
									c-0.6,1.9-1.2,3.6-1.8,5.4c-0.6,1.7-1.2,3.4-1.8,5c-0.6,1.6-1.2,3.2-1.8,4.8c-0.6,1.6-1.2,3.2-1.8,4.7
									c-0.2,0.7-0.4,1.3-0.7,2c-0.2,0.7-0.4,1.3-0.7,2s-0.4,1.3-0.7,2c-0.2,0.7-0.4,1.3-0.7,2c-0.1,0.2-0.1,0.3-0.2,0.4
									c-0.1,0.1-0.1,0.3-0.2,0.4c-0.1,0.1-0.1,0.3-0.2,0.4c-0.1,0.1-0.1,0.3-0.2,0.4c-0.3,0.5-0.5,1-0.9,1.4
									c-0.3,0.4-0.7,0.8-1,1.1c-0.4,0.3-0.8,0.6-1.3,0.8c-0.5,0.2-0.9,0.4-1.5,0.6c0,0,0,0-0.1,0c0,0,0,0-0.1,0c0,0,0,0-0.1,0
									c0,0,0,0-0.1,0l0,0c0,0,0,0,0,0c0,0,0,0,0,0c0,0,0,0,0,0c0,0,0,0,0,0c-0.1,0-0.2,0.1-0.4,0.1c-0.1,0-0.2,0.1-0.4,0.1
									c-0.1,0-0.2,0.1-0.4,0.1c-0.1,0-0.2,0.1-0.4,0.1c-0.5,0.1-1,0.2-1.5,0.4c-0.5,0.1-1,0.2-1.5,0.4c-0.5,0.1-1,0.2-1.5,0.4
									c-0.5,0.1-1,0.2-1.5,0.4c-0.4,0.1-0.8,0.2-1.2,0.3c-0.4,0.1-0.8,0.2-1.2,0.3c-0.4,0.1-0.8,0.2-1.2,0.3
									c-0.4,0.1-0.8,0.2-1.2,0.3c0,0-0.1,0-0.1,0c0,0-0.1,0-0.1,0s-0.1,0-0.1,0c0,0-0.1,0-0.1,0c-0.1,0-0.1,0-0.2,0
									c-0.1,0-0.1,0-0.2,0c-0.1,0-0.1,0-0.2,0c-0.1,0-0.1,0-0.2,0c-0.4,0.1-0.8,0.2-1.2,0.3c-0.4,0.1-0.8,0.2-1.2,0.3
									c-0.4,0.1-0.8,0.2-1.2,0.3c-0.4,0.1-0.8,0.2-1.2,0.3c0,0-0.1,0-0.1,0c0,0-0.1,0-0.1,0c0,0-0.1,0-0.1,0c0,0-0.1,0-0.1,0
									c-0.4,0.1-0.8,0.2-1.2,0.3c-0.4,0.1-0.8,0.2-1.2,0.3c-0.4,0.1-0.8,0.2-1.2,0.3c-0.4,0.1-0.8,0.2-1.2,0.3
									c-0.1,0-0.3,0.1-0.4,0.1c-0.1,0-0.3,0.1-0.4,0.1c-0.1,0-0.3,0.1-0.4,0.1c-0.1,0-0.3,0.1-0.4,0.1c0,0,0,0,0,0s0,0,0,0
									c0,0,0,0,0,0c0,0,0,0,0,0l0,0c0,0,0,0,0,0c0,0,0,0,0,0c0,0,0,0,0,0c0,0,0,0,0,0c0,0,0,0-0.1,0c0,0,0,0-0.1,0c0,0,0,0-0.1,0
									c0,0,0,0-0.1,0c-0.8,0.2-1.5,0.3-2.1,0.2c-0.6-0.1-1-0.3-1.3-0.6c-0.3-0.3-0.5-0.8-0.5-1.4c0-0.6,0.2-1.4,0.5-2.3
									c0.9-2.6,1.8-5.1,2.6-7.6c0.9-2.5,1.7-5.1,2.6-7.6c0.8-2.5,1.7-5.1,2.6-7.6c0.9-2.5,1.7-5.1,2.6-7.6
									c0.1-0.2,0.1-0.4,0.1-0.6c0-0.2,0-0.4,0-0.5c0-0.2-0.1-0.3-0.1-0.4c0-0.1-0.1-0.2-0.1-0.4l-0.1-5.3c-1.7,0-3.3-0.3-4.7-0.9
									c-1.5-0.6-2.8-1.4-3.9-2.5c-1.1-1.1-2.1-2.5-2.7-4c-0.7-1.6-1.1-3.4-1.2-5.4c-0.1-2.1,0.2-4.1,0.8-6.1
									c0.6-1.9,1.4-3.8,2.5-5.4c1.1-1.7,2.4-3.1,3.8-4.4c1.4-1.3,3-2.3,4.7-3l-0.1-5.1c-1.7,0.1-3.3,0-4.9-0.1
									c-1.6-0.1-3.1-0.3-4.7-0.7c-1.5-0.4-3.1-0.8-4.7-1.5c-1.6-0.6-3.2-1.4-4.9-2.4l1.4,0l0,0l0.1,0c0,0,0.1,0,0.1,0s0.1,0,0.1,0
									c0,0,0.1,0,0.1,0c0,0,0.1,0,0.1,0c-0.1,0-0.1-0.1-0.2-0.1c-0.1,0-0.1-0.1-0.2-0.1c-0.1,0-0.1-0.1-0.2-0.1
									c-0.1,0-0.1-0.1-0.2-0.1c0,0,0,0,0,0c0,0,0,0,0,0s0,0,0,0c0,0,0,0,0,0c0,0,0,0,0,0s0,0,0,0s0,0,0,0c0,0,0,0,0,0
									c1.8-0.3,3.6-0.6,5.4-0.9c1.8-0.3,3.6-0.6,5.3-0.9c1.8-0.3,3.5-0.6,5.3-0.9c1.7-0.3,3.5-0.6,5.2-0.9
									c1.3-0.2,2.6-0.4,3.9-0.6c1.3-0.2,2.6-0.4,3.8-0.7c1.3-0.2,2.5-0.4,3.8-0.7c1.3-0.2,2.5-0.4,3.8-0.7c0,0,0.1,0,0.1,0
									c0,0,0.1,0,0.1,0s0.1,0,0.1,0c0,0,0.1,0,0.1,0l0,0c0,0,0.1,0,0.1,0c0,0,0.1,0,0.1,0c0,0,0.1,0,0.1,0s0.1,0,0.1,0
									c1-0.1,1.9-0.2,2.7,0c0.8,0.1,1.5,0.3,2.2,0.7c0.7,0.4,1.2,0.9,1.8,1.6c0.5,0.7,1,1.6,1.3,2.6c0,0.1,0.1,0.2,0.1,0.3
									c0,0.1,0.1,0.2,0.1,0.3c0,0.1,0.1,0.2,0.1,0.3c0,0.1,0.1,0.2,0.1,0.3c0,0,0,0.1,0,0.1c0,0,0,0.1,0,0.1c0,0,0,0.1,0,0.1
									c0,0,0,0.1,0,0.1c-0.1,0-0.2,0-0.3,0.1c-0.1,0-0.2,0-0.3,0.1s-0.2,0-0.3,0.1c-0.1,0-0.2,0-0.3,0.1c0,0,0,0.1,0.1,0.1
									s0,0.1,0.1,0.1c0,0,0,0.1,0.1,0.1c0,0,0,0.1,0.1,0.1l-1.6,0.3l0,3.6c0.7-0.1,1.4-0.3,2.1-0.4c0.7-0.1,1.4-0.3,2.1-0.4
									c0.7-0.1,1.4-0.3,2.1-0.4c0.7-0.1,1.4-0.3,2.1-0.4c1.9-0.3,3.8-0.7,5.7-1c1.9-0.3,3.8-0.7,5.6-1c1.9-0.3,3.7-0.6,5.5-0.9
									c1.8-0.3,3.7-0.6,5.5-0.9c0.1,0,0.1,0,0.2,0c0.1,0,0.1,0,0.2,0c0.1,0,0.1,0,0.2,0c0.1,0,0.1,0,0.2,0
									c0.7-0.1,1.3-0.3,1.9-0.4c0.6-0.2,1-0.4,1.4-0.7c0.4-0.3,0.7-0.6,1-1c0.3-0.4,0.4-0.9,0.5-1.5c0-0.2,0-0.3,0-0.5
									c0-0.2,0-0.3,0-0.5c0-0.2,0-0.4,0-0.5c0-0.2,0-0.4-0.1-0.6c0-0.2-0.1-0.5-0.1-0.7c0-0.2,0-0.4-0.1-0.6c0-0.2,0-0.4,0-0.6
									C345.6,102.4,345.6,102.2,345.6,102 M264.7,104.3c-0.6,0.1-1.2,0.3-1.8,0.6c-0.6,0.3-1.1,0.7-1.5,1.2
									c-0.5,0.5-0.9,1.1-1.2,1.7c-0.3,0.6-0.6,1.4-0.7,2.1c-0.1,0.8-0.2,1.5-0.1,2.2c0.1,0.7,0.2,1.4,0.4,2c0.2,0.6,0.6,1.2,1,1.7
									c0.4,0.5,0.9,0.9,1.4,1.2c1,0.5,1.9,1,2.9,1.5c1,0.4,1.9,0.9,2.8,1.2c0.9,0.4,1.9,0.7,2.8,0.9c1,0.3,1.9,0.5,2.9,0.7
									c-1.1,1.3-2.1,2.7-3,4.2c-0.9,1.5-1.6,3.1-2.1,4.7c-0.6,1.6-1,3.3-1.2,5.1c-0.3,1.7-0.4,3.5-0.3,5.2
									c0.1,2.2,0.5,4.4,1.1,6.3c0.6,1.9,1.5,3.7,2.7,5.2c1.1,1.5,2.5,2.8,4,3.8c1.5,1,3.3,1.8,5.2,2.2l0,0.6c0,0.1,0,0.1,0,0.2
									c0,0.1,0,0.1-0.1,0.2c0,0.1,0,0.1-0.1,0.2c0,0.1,0,0.1,0,0.2c-0.4,1.1-0.8,2.2-1.2,3.3c-0.4,1.1-0.8,2.2-1.1,3.3
									c-0.4,1.1-0.8,2.2-1.1,3.3c-0.4,1.1-0.7,2.2-1.1,3.2c-0.4,1.3-0.9,2.6-1.3,3.9c-0.4,1.3-0.9,2.7-1.4,4
									c-0.5,1.3-0.9,2.7-1.4,4c-0.5,1.3-0.9,2.7-1.4,4c-0.5,1.3-0.7,2.4-0.8,3.4c-0.1,1-0.1,1.9,0,2.6c0.1,0.8,0.3,1.4,0.5,1.9
									c0.2,0.5,0.4,1,0.7,1.3c0.3,0.4,0.6,0.9,1.1,1.2c0.5,0.4,1,0.7,1.7,0.9c0.7,0.2,1.4,0.4,2.3,0.4c0.9,0,1.9-0.1,3.1-0.4
									l0.1,0c1-0.3,2-0.5,3-0.8c1-0.3,2-0.5,3.1-0.8c1-0.3,2.1-0.6,3.1-0.8c1-0.3,2.1-0.6,3.1-0.8c1-0.3,2.1-0.6,3.2-0.8
									c1.1-0.3,2.1-0.6,3.2-0.8c1.1-0.3,2.2-0.6,3.2-0.8c1.1-0.3,2.2-0.6,3.3-0.9l0.1,0c1.2-0.3,2.3-0.8,3.3-1.3
									c1-0.6,1.9-1.3,2.8-2.2c0.8-0.8,1.6-1.8,2.3-2.9c0.7-1.1,1.2-2.3,1.7-3.7c0.5-1.4,0.9-2.8,1.4-4.1c0.5-1.3,0.9-2.6,1.4-3.9
									c0.5-1.3,1-2.6,1.4-3.9c0.5-1.3,1-2.6,1.5-3.9c0.3-0.7,0.5-1.4,0.8-2.2c0.3-0.7,0.5-1.5,0.8-2.2c0.3-0.7,0.5-1.5,0.8-2.2
									c0.3-0.8,0.6-1.5,0.8-2.3c0.3-0.3,0.5-0.7,0.7-1.1c0.2-0.4,0.4-0.8,0.6-1.2s0.3-0.9,0.4-1.3c0.1-0.5,0.1-0.9,0.1-1.4
									c0-0.2,0-0.5,0-0.7c0-0.2-0.1-0.5-0.1-0.7c0-0.2-0.1-0.4-0.2-0.6c-0.1-0.2-0.1-0.4-0.2-0.6c1.5-0.3,3-0.7,4.4-1
									c1.4-0.3,2.7-0.6,3.9-0.9c1.2-0.3,2.4-0.6,3.6-0.8c1.1-0.3,2.2-0.5,3.3-0.8c0,0,0.1,0,0.1,0c0,0,0.1,0,0.1,0
									c0,0,0.1,0,0.1,0c0,0,0.1,0,0.1,0c0.1,0,0.1,0,0.2,0s0.1,0,0.2,0c0.1,0,0.1,0,0.2,0c0.1,0,0.1,0,0.2,0
									c0,0.4-0.1,0.9-0.1,1.5c0,0.6,0,1.2,0.1,1.8c0.1,0.6,0.2,1.3,0.5,1.9c0.2,0.6,0.5,1.2,1,1.8c0.3,0.4,0.6,0.7,1,1
									c0.4,0.3,0.7,0.5,1.2,0.6c0.4,0.1,0.8,0.2,1.3,0.2c0.5,0,0.9,0,1.4-0.1c0,0,0.1,0,0.1,0c0,0,0.1,0,0.1,0c0,0,0.1,0,0.1,0
									c0,0,0.1,0,0.1,0c0.5-0.1,0.9-0.3,1.4-0.5c0.4-0.2,0.8-0.5,1.2-0.8c0.4-0.3,0.7-0.6,1-1c0.3-0.4,0.6-0.7,0.8-1.2
									c0.3,0.1,0.5,0.2,0.7,0.2c0.2,0,0.5,0.1,0.7,0.1c0.2,0,0.4,0,0.5,0c0.2,0,0.3,0,0.4,0c0,0,0.1,0,0.1,0c0,0,0.1,0,0.1,0
									c0,0,0.1,0,0.1,0c0,0,0.1,0,0.1,0c0.4-0.1,0.9-0.2,1.3-0.4c0.4-0.2,0.8-0.4,1.1-0.7c0.4-0.3,0.7-0.6,1-0.9
									c0.3-0.3,0.6-0.7,0.9-1.1c0,0,0,0,0-0.1c0,0,0,0,0-0.1c0,0,0,0,0-0.1c0,0,0,0,0-0.1c0.1,0,0.2,0,0.4,0c0.1,0,0.2,0,0.4,0
									c0.1,0,0.2,0,0.4,0c0.1,0,0.3,0,0.4-0.1l0.1,0c0.7-0.2,1.4-0.5,2.1-0.9c0.7-0.4,1.3-1,1.8-1.8c0.5-0.7,1-1.6,1.3-2.7
									c0.3-1.1,0.5-2.3,0.5-3.7c0-0.4,0-0.9,0-1.3c0-0.4,0-0.9,0-1.3c0-0.4,0-0.9,0-1.3c0-0.4,0-0.8,0-1.3c0.1,0,0.2,0,0.3,0.1
									c0.1,0,0.2,0,0.4,0.1c0.1,0,0.2,0,0.4,0.1c0.1,0,0.3,0,0.4,0.1c0.5,1.2,1,2.2,1.7,3.1c0.7,0.9,1.4,1.5,2.2,2
									c0.8,0.5,1.7,0.8,2.7,0.9c1,0.1,2,0.1,3.1-0.2c0.3-0.1,0.6-0.1,0.9-0.2c0.3-0.1,0.6-0.2,0.9-0.3c0.3-0.1,0.6-0.2,1-0.4
									c0.3-0.1,0.7-0.3,1-0.5c0.3-0.2,0.6-0.4,0.9-0.6c0.3-0.2,0.5-0.5,0.8-0.8c0.2-0.3,0.5-0.6,0.7-1c0.2-0.4,0.4-0.7,0.5-1.2
									c0.2-0.4,0.3-0.8,0.4-1.2c0.1-0.4,0.1-0.8,0.2-1.3c0-0.4,0-0.8,0-1.2c0-0.4-0.1-0.8-0.2-1.1c0,0,0-0.1,0-0.1
									c0,0,0-0.1,0-0.1c0,0,0-0.1,0-0.1s0-0.1,0-0.1c0.1,0,0.2-0.1,0.2-0.1c0.1,0,0.1-0.1,0.2-0.1c0.1,0,0.1-0.1,0.2-0.1
									c0.1,0,0.1-0.1,0.2-0.1c0,0,0.1,0,0.2-0.1c0.1,0,0.1-0.1,0.2-0.1c0.1,0,0.1,0,0.1-0.1s0.1,0,0.1,0c0.6-0.1,1.3-0.3,1.9-0.4
									c0.6-0.2,1.3-0.3,1.9-0.5c0.6-0.2,1.3-0.3,1.9-0.5c0.6-0.2,1.2-0.3,1.8-0.5c0.6-0.2,1.2-0.3,1.8-0.5
									c0.6-0.2,1.2-0.3,1.7-0.5c0.6-0.2,1.1-0.3,1.7-0.4c0.6-0.1,1.1-0.3,1.7-0.4c0.1,0,0.5-0.1,1-0.3c0.5-0.2,1.1-0.6,1.6-1.2
									c0.6-0.6,1.2-1.4,1.6-2.5c0.4-1.1,0.8-2.5,0.8-4.2c0,0,0,0,0-0.1c0,0,0,0,0-0.1c0,0,0,0,0-0.1c0,0,0,0,0-0.1
									c0-0.1,0-0.3,0-0.4c0-0.1,0-0.3,0-0.4c0-0.1,0-0.2,0-0.4c0-0.1,0-0.2,0-0.4c0.7-0.6,1.3-1.3,1.7-2c0.4-0.7,0.7-1.5,1-2.2
									c0.2-0.7,0.3-1.3,0.4-1.9c0.1-0.5,0.1-0.9,0.1-1c0-0.7,0-1.4-0.1-2.1c-0.1-0.6-0.3-1.2-0.6-1.7c-0.2-0.5-0.6-1-0.9-1.4
									c-0.4-0.4-0.8-0.7-1.2-0.9c0-0.4-0.1-0.8-0.2-1.2c-0.1-0.4-0.2-0.8-0.3-1.1c-0.1-0.4-0.3-0.7-0.4-1
									c-0.2-0.3-0.4-0.6-0.6-0.9c-0.2-0.3-0.5-0.6-0.8-0.8c-0.3-0.2-0.6-0.4-0.9-0.6c-0.3-0.1-0.6-0.2-1-0.3c-0.3,0-0.7,0-1,0
									c-0.6,0.1-1.1,0.2-1.7,0.3c-0.6,0.1-1.1,0.2-1.7,0.3c-0.6,0.1-1.1,0.2-1.7,0.2c-0.6,0.1-1.1,0.2-1.7,0.2
									c-0.6,0.1-1.3,0.2-1.9,0.3c-0.6,0.1-1.3,0.2-1.9,0.3c-0.7,0.1-1.3,0.2-2,0.3c-0.7,0.1-1.3,0.2-2,0.3c0,0-0.1,0-0.1,0
									c0,0-0.1,0-0.1,0c0,0-0.1,0-0.1,0c0,0-0.1,0-0.1,0c0-0.2,0-0.4-0.1-0.7c0-0.2-0.1-0.4-0.1-0.7c-0.1-0.2-0.1-0.4-0.2-0.7
									c-0.1-0.2-0.2-0.4-0.3-0.7c-0.3-0.7-0.7-1.2-1.1-1.5c-0.4-0.4-0.8-0.6-1.2-0.7c-0.4-0.1-0.8-0.2-1.2-0.2c-0.4,0-0.7,0-0.9,0
									c-0.1,0-0.1,0-0.2,0c-0.1,0-0.1,0-0.2,0s-0.1,0-0.2,0c-0.1,0-0.1,0-0.2,0c-0.2,0-0.3,0-0.5,0c-0.2,0-0.3,0-0.5,0
									c-0.2,0-0.3,0-0.5,0c-0.2,0-0.3,0-0.5,0.1c-1.5,0.2-2.8,0.8-3.8,1.7c-1.1,0.8-2,1.9-2.8,3c-0.8,1.1-1.4,2.4-1.9,3.6
									c-0.5,1.2-0.9,2.3-1.3,3.3c-0.1,0.2-0.1,0.3-0.2,0.4c-0.1,0.1-0.1,0.3-0.2,0.4c-0.1,0.1-0.1,0.3-0.2,0.5s-0.1,0.4-0.2,0.6
									l-3,0.5l0.1-5.6l0,0c0.1-0.3,0.2-0.7,0.3-1.2c0.1-0.5,0.2-1,0.2-1.6c0-0.6,0-1.3-0.1-1.9c-0.1-0.7-0.3-1.3-0.7-2
									c-0.2-0.4-0.5-0.8-0.8-1.1c-0.3-0.3-0.6-0.5-1-0.7c-0.4-0.2-0.7-0.3-1.1-0.3c-0.4,0-0.8,0-1.3,0l-0.1,0c-0.1,0-0.1,0-0.2,0
									c-0.1,0-0.1,0-0.2,0s-0.1,0-0.2,0c-0.1,0-0.1,0-0.2,0c0,0-0.1,0-0.1,0c0,0-0.1,0-0.1,0s-0.1,0-0.1,0c0,0-0.1,0-0.1,0
									c-0.4-0.3-0.7-0.6-1.1-0.8c-0.4-0.2-0.7-0.3-1.1-0.4c-0.3-0.1-0.6-0.1-0.9-0.1c-0.3,0-0.5,0-0.6,0l-0.1,0
									c-0.2,0-0.5,0.1-0.7,0.2c-0.2,0.1-0.5,0.2-0.7,0.3c-0.2,0.1-0.5,0.2-0.7,0.4c-0.2,0.2-0.4,0.3-0.6,0.5
									c-0.2-0.3-0.4-0.5-0.7-0.7c-0.3-0.2-0.5-0.4-0.8-0.5c-0.3-0.1-0.6-0.2-0.9-0.3c-0.3,0-0.6,0-1,0l-2,0.3
									c-0.3,0.1-0.7,0.2-1,0.3c-0.3,0.2-0.7,0.3-1,0.6c-0.3,0.2-0.6,0.5-0.9,0.8c-0.3,0.3-0.5,0.7-0.7,1.1
									c-0.5,0.9-0.9,1.7-1.1,2.5c-0.3,0.8-0.5,1.6-0.6,2.4c-0.1,0.8-0.2,1.5-0.2,2.2c0,0.7,0,1.4,0,2c-0.1,0-0.1,0-0.2,0
									c-0.1,0-0.1,0-0.2,0c-0.1,0-0.1,0-0.2,0c-0.1,0-0.1,0-0.2,0c-0.1,0-0.2,0-0.3,0s-0.2,0-0.3,0c-0.1,0-0.2,0-0.3,0
									c-0.1,0-0.2,0-0.3,0c-0.9,0.1-1.9,0.3-2.9,0.4c-1,0.1-1.9,0.3-2.9,0.4c-1,0.1-2,0.3-3,0.4c-1,0.1-2,0.3-3.1,0.4
									c-0.9,0.1-1.9,0.2-2.8,0.4c-1,0.1-1.9,0.2-2.9,0.4c-1,0.1-1.9,0.3-2.9,0.4c-1,0.1-2,0.3-2.9,0.4c0,0,0,0,0-0.1
									c0,0,0,0,0-0.1c0,0,0,0,0-0.1c0,0,0,0,0-0.1c-0.6-1.6-1.3-3-2.1-4.1c-0.8-1.2-1.8-2.1-2.8-2.8c-1.1-0.7-2.2-1.2-3.5-1.4
									c-1.3-0.2-2.7-0.3-4.2,0c0,0-0.1,0-0.1,0c0,0-0.1,0-0.1,0c0,0,0,0-0.1,0c0,0,0,0-0.1,0c-0.3,0.1-0.6,0.1-0.9,0.2
									c-0.3,0.1-0.6,0.1-0.9,0.2c-0.3,0.1-0.6,0.1-0.9,0.2c-0.3,0.1-0.6,0.1-0.9,0.2c-1.3,0.2-2.6,0.4-3.9,0.6
									c-1.3,0.2-2.7,0.4-4,0.5c-1.3,0.2-2.7,0.3-4,0.5c-1.3,0.2-2.7,0.3-4,0.5c-1.2,0.1-2.4,0.3-3.7,0.4c-1.2,0.2-2.5,0.3-3.7,0.5
									c-1.3,0.2-2.5,0.3-3.8,0.5c-1.3,0.2-2.5,0.4-3.8,0.6c-0.1,0-0.2-0.1-0.3-0.1c-0.1,0-0.2,0-0.3-0.1c-0.1,0-0.2,0-0.3,0
									c-0.1,0-0.2,0-0.3,0l-0.5,0c-0.3,0-0.5,0-0.7,0c-0.2,0-0.3,0-0.4,0c-0.1,0-0.2,0-0.2,0C264.9,104.3,264.8,104.3,264.7,104.3
									"/>
								<path class="st10" d="M278.4,194.1C278.4,194.1,278.4,194.1,278.4,194.1C278.4,194.1,278.4,194.1,278.4,194.1
									c0.1,0,0.1,0,0.1,0c0,0,0,0,0,0l0,0c0,0,0,0,0,0C278.5,194.1,278.4,194.1,278.4,194.1C278.4,194.1,278.4,194.1,278.4,194.1
									C278.4,194.1,278.4,194.1,278.4,194.1 M297.4,189.1c0.4-0.1,0.8-0.2,1.2-0.3c0.4-0.1,0.8-0.2,1.2-0.3
									c0.4-0.1,0.8-0.2,1.2-0.3c0.4-0.1,0.8-0.2,1.2-0.3c0.1,0,0.2-0.1,0.4-0.1c0.1,0,0.2-0.1,0.4-0.1c0.1,0,0.2-0.1,0.4-0.1
									c0.1,0,0.2-0.1,0.4-0.1c0,0,0,0,0,0c0,0,0,0,0,0c0,0,0,0,0,0c0,0,0,0,0,0c0,0,0,0,0,0c0,0,0,0,0,0c0,0,0,0,0,0s0,0,0,0
									c-0.5,0.1-1.1,0.3-1.6,0.4c-0.5,0.1-1.1,0.3-1.6,0.4c-0.5,0.1-1.1,0.3-1.6,0.4C298.5,188.9,298,189,297.4,189.1
									 M290.4,190.9c-0.4,0.1-0.8,0.2-1.2,0.3c-0.4,0.1-0.8,0.2-1.2,0.3c-0.4,0.1-0.8,0.2-1.2,0.3c-0.4,0.1-0.8,0.2-1.2,0.3
									c0.4-0.1,0.8-0.2,1.2-0.3c0.4-0.1,0.8-0.2,1.2-0.3c0.4-0.1,0.8-0.2,1.2-0.3C289.6,191.2,290,191,290.4,190.9 M291,190.8
									L291,190.8c0,0,0.1,0,0.1,0c0,0,0.1,0,0.1,0s0.1,0,0.1,0c0,0,0.1,0,0.1,0c0,0-0.1,0-0.1,0c0,0-0.1,0-0.1,0s-0.1,0-0.1,0
									S291,190.8,291,190.8 M308.7,183.5c-0.3,0.5-0.5,1-0.9,1.4c-0.3,0.4-0.7,0.8-1,1.1c-0.4,0.3-0.8,0.6-1.3,0.8
									c-0.5,0.2-0.9,0.4-1.5,0.6c0.5-0.2,1-0.3,1.5-0.6c0.5-0.2,0.9-0.5,1.3-0.8c0.4-0.3,0.7-0.7,1-1.1
									C308.2,184.5,308.5,184,308.7,183.5 M275.2,190.3c0,0.1,0,0.1-0.1,0.2c0,0.1,0,0.1-0.1,0.2c0,0.1,0,0.1-0.1,0.2
									c0,0.1,0,0.1,0,0.2c0-0.1,0-0.1,0-0.2c0-0.1,0-0.1,0.1-0.2c0-0.1,0-0.1,0.1-0.2C275.2,190.4,275.2,190.4,275.2,190.3
									 M360.1,142.1C360.1,142.1,360.1,142.1,360.1,142.1c0.1,0,0.1,0,0.1,0s0,0,0.1,0c0,0,0,0,0.1,0l0,0c0,0,0,0-0.1,0
									c0,0,0,0-0.1,0C360.2,142.1,360.2,142.1,360.1,142.1C360.1,142.1,360.1,142.1,360.1,142.1 M355.9,142.1c0,0.4,0,0.7,0,1.1
									c0,0.4-0.1,0.7-0.2,1.1c-0.1,0.3-0.2,0.6-0.5,0.8c-0.2,0.2-0.5,0.4-0.9,0.5c0.4-0.1,0.7-0.3,0.9-0.5
									c0.2-0.2,0.4-0.5,0.5-0.8s0.2-0.7,0.2-1.1C355.9,142.8,355.9,142.4,355.9,142.1 M311.3,151.1c0,0,0.1,0,0.1,0
									c0,0,0.1,0,0.1,0c0,0,0.1,0,0.1,0c0,0,0.1,0,0.1,0c0,0-0.1,0-0.1,0c0,0-0.1,0-0.1,0c0,0-0.1,0-0.1,0
									C311.3,151,311.3,151.1,311.3,151.1 M296.1,154.4C296.1,154.4,296.1,154.4,296.1,154.4c0.1,0,0.1,0,0.1,0c0,0,0,0,0.1,0
									c0,0,0,0,0.1,0c0,0,0,0-0.1,0c0,0,0,0-0.1,0C296.2,154.4,296.2,154.4,296.1,154.4C296.1,154.4,296.1,154.4,296.1,154.4
									 M313.7,150.5c-0.1,0-0.2,0-0.3,0.1c-0.1,0-0.2,0-0.3,0.1c-0.1,0-0.2,0-0.3,0.1c-0.1,0-0.2,0-0.3,0.1c0.1,0,0.2,0,0.3-0.1
									c0.1,0,0.2,0,0.3-0.1s0.2,0,0.3-0.1C313.5,150.6,313.6,150.5,313.7,150.5 M299.7,153.6c-0.2,0-0.4,0.1-0.7,0.1
									c-0.2,0-0.4,0.1-0.7,0.1c-0.2,0-0.4,0.1-0.7,0.1c-0.2,0-0.4,0.1-0.7,0.1c0.2,0,0.4-0.1,0.7-0.1c0.2,0,0.4-0.1,0.7-0.1
									c0.2,0,0.4-0.1,0.7-0.1C299.2,153.7,299.4,153.6,299.7,153.6 M304.3,152.6c0.3-0.1,0.6-0.1,0.9-0.2c0.3-0.1,0.6-0.1,0.9-0.2
									c0.3-0.1,0.6-0.1,0.9-0.2c0.3-0.1,0.6-0.1,0.9-0.2c-0.3,0.1-0.6,0.1-0.9,0.2c-0.3,0.1-0.6,0.1-0.9,0.2
									c-0.3,0.1-0.6,0.1-0.9,0.2C304.9,152.4,304.6,152.5,304.3,152.6 M289.9,155.7c-0.3,0.1-0.7,0.2-1,0.4
									c-0.3,0.2-0.6,0.3-0.8,0.5c-0.3,0.2-0.5,0.5-0.7,0.7c-0.2,0.3-0.4,0.6-0.6,1c0.2-0.4,0.4-0.7,0.6-1c0.2-0.3,0.5-0.5,0.7-0.7
									c0.3-0.2,0.5-0.4,0.8-0.5C289.2,155.9,289.5,155.8,289.9,155.7 M290.6,155.5c0.2,0,0.5-0.1,0.7-0.1c0.2,0,0.5-0.1,0.7-0.1
									c0.2,0,0.5-0.1,0.7-0.1c0.2-0.1,0.5-0.1,0.7-0.2c-0.2,0.1-0.5,0.1-0.7,0.2c-0.2,0.1-0.5,0.1-0.7,0.1c-0.2,0-0.5,0.1-0.7,0.1
									C291.1,155.4,290.8,155.5,290.6,155.5 M290.4,155.6C290.4,155.6,290.4,155.6,290.4,155.6
									C290.4,155.6,290.5,155.6,290.4,155.6c0.1,0,0.1,0,0.1,0c0,0,0,0,0,0c0,0,0,0,0,0C290.5,155.5,290.5,155.5,290.4,155.6
									C290.5,155.6,290.4,155.6,290.4,155.6C290.4,155.6,290.4,155.6,290.4,155.6 M317.4,149.7L317.4,149.7
									C317.4,149.7,317.4,149.7,317.4,149.7C317.4,149.7,317.4,149.7,317.4,149.7C317.4,149.6,317.5,149.6,317.4,149.7
									c0.1,0,0.1,0,0.1,0C317.5,149.6,317.5,149.6,317.4,149.7C317.5,149.6,317.4,149.6,317.4,149.7
									C317.4,149.7,317.4,149.7,317.4,149.7C317.4,149.7,317.4,149.7,317.4,149.7 M376.5,133.5
									C376.5,133.4,376.5,133.4,376.5,133.5c0.1,0,0.1,0,0.1,0c0,0,0,0,0.1,0s0,0,0.1,0c0,0,0,0-0.1,0c0,0,0,0-0.1,0
									C376.6,133.4,376.5,133.4,376.5,133.5C376.5,133.4,376.5,133.4,376.5,133.5 M380.5,131.9c-0.3,0.2-0.6,0.3-0.9,0.5
									c-0.3,0.1-0.6,0.3-0.9,0.4c-0.3,0.1-0.6,0.2-0.9,0.3c-0.3,0.1-0.6,0.2-0.8,0.2c0.2-0.1,0.5-0.1,0.7-0.2
									c0.2-0.1,0.5-0.2,0.8-0.3c0.3-0.1,0.5-0.2,0.8-0.3c0.3-0.1,0.5-0.2,0.8-0.4c0,0,0.1,0,0.1-0.1s0.1,0,0.1-0.1
									c0,0,0.1,0,0.1-0.1C380.4,132,380.5,132,380.5,131.9 M371.5,130.2C371.5,130.2,371.5,130.2,371.5,130.2
									C371.5,130.3,371.5,130.3,371.5,130.2c0,0.1,0,0.1,0,0.1c0,0,0,0,0,0c0,0,0,0,0,0C371.5,130.3,371.5,130.3,371.5,130.2
									C371.5,130.3,371.5,130.3,371.5,130.2C371.5,130.2,371.5,130.2,371.5,130.2 M386.9,118.6
									C386.9,118.6,386.9,118.6,386.9,118.6c-0.1,0-0.2,0-0.2,0c0,0-0.1,0-0.1,0s-0.1,0-0.1,0c0,0,0.1,0,0.1,0s0.1,0,0.1,0
									C386.8,118.7,386.8,118.7,386.9,118.6C386.9,118.6,386.9,118.6,386.9,118.6 M389,118.2c-0.1,0-0.3,0.1-0.4,0.1
									c-0.1,0-0.3,0.1-0.4,0.1c-0.1,0-0.3,0.1-0.4,0.1c-0.1,0-0.3,0.1-0.4,0.1c0.1,0,0.2-0.1,0.4-0.1c0.1,0,0.2-0.1,0.4-0.1
									c0.1,0,0.2,0,0.4-0.1c0.1,0,0.2,0,0.4-0.1c0.3-0.1,0.7-0.1,1-0.2c0.3-0.1,0.7-0.1,1-0.2c0.3-0.1,0.7-0.1,1-0.2
									c0.3-0.1,0.7-0.1,1-0.2c0.1,0,0.2,0,0.3-0.1c0.1,0,0.2,0,0.3-0.1c0.1,0,0.2,0,0.3-0.1c0.1,0,0.2,0,0.3-0.1
									c0.1,0,0.2,0,0.3-0.1c0.1,0,0.2,0,0.3-0.1c0.1,0,0.2,0,0.3-0.1s0.2,0,0.3-0.1c0.4-0.1,0.8-0.2,1.2-0.2
									c0.4-0.1,0.8-0.2,1.2-0.2c0.4-0.1,0.8-0.2,1.2-0.2c0.4-0.1,0.8-0.2,1.2-0.2c-0.1,0-0.1,0-0.2,0s-0.1,0-0.2,0
									c-0.1,0-0.1,0-0.2,0c-0.1,0-0.1,0-0.2,0c-0.3,0.1-0.6,0.1-0.9,0.2c-0.3,0.1-0.6,0.1-0.9,0.2c-0.3,0.1-0.6,0.1-0.9,0.2
									c-0.3,0.1-0.6,0.1-0.9,0.2c-0.3,0.1-0.5,0.1-0.8,0.2c-0.3,0.1-0.5,0.1-0.8,0.2c-0.3,0.1-0.5,0.1-0.8,0.2
									c-0.3,0.1-0.5,0.1-0.8,0.1c-0.3,0.1-0.6,0.1-1,0.2c-0.3,0.1-0.6,0.1-1,0.2c-0.3,0.1-0.6,0.1-1,0.2
									C389.6,118.1,389.3,118.2,389,118.2 M390.5,110.2c-0.1,0-0.2,0-0.4,0.1c-0.1,0-0.2,0-0.4,0.1c-0.1,0-0.2,0-0.4,0.1
									c-0.1,0-0.2,0-0.4,0.1c0.1,0,0.2,0,0.4-0.1c0.1,0,0.2,0,0.4-0.1c0.1,0,0.2,0,0.4-0.1C390.3,110.3,390.4,110.3,390.5,110.2
									 M392.7,109.8c-0.2,0-0.3,0.1-0.5,0.1c-0.2,0-0.3,0.1-0.5,0.1c-0.2,0-0.3,0.1-0.5,0.1c-0.2,0-0.3,0.1-0.5,0.1
									c0.1,0,0.2,0,0.4-0.1c0.1,0,0.2,0,0.4-0.1c0.1,0,0.2,0,0.4-0.1c0.1,0,0.2,0,0.4-0.1c0.3-0.1,0.7-0.1,1-0.2
									c0.3-0.1,0.7-0.1,1-0.2c0.3-0.1,0.7-0.1,1-0.2c0.3-0.1,0.7-0.1,1-0.2c0.2,0,0.5-0.1,0.7-0.1c0.2,0,0.5-0.1,0.7-0.1
									c0.2,0,0.5-0.1,0.7-0.1c0.2,0,0.5-0.1,0.7-0.1c0.4-0.1,0.8-0.1,1.1-0.2c0.4-0.1,0.8-0.1,1.1-0.2c0.4-0.1,0.8-0.1,1.1-0.2
									c0.4-0.1,0.8-0.1,1.1-0.2c-0.3,0.1-0.6,0.1-0.9,0.2c-0.3,0.1-0.6,0.1-0.9,0.2c-0.3,0.1-0.6,0.1-0.9,0.2
									c-0.3,0.1-0.6,0.1-0.9,0.2c-0.3,0.1-0.6,0.1-0.9,0.2c-0.3,0.1-0.6,0.1-0.9,0.2c-0.3,0.1-0.6,0.1-0.9,0.2
									c-0.3,0.1-0.6,0.1-0.9,0.2c-0.3,0.1-0.6,0.1-0.9,0.2c-0.3,0.1-0.6,0.1-0.9,0.2c-0.3,0.1-0.6,0.1-0.9,0.2
									C393.2,109.7,393,109.8,392.7,109.8 M351.5,116.8c0,0.1,0,0.2,0,0.3c0,0.1,0,0.2,0,0.3c0,0.1,0,0.2,0,0.3c0,0.1,0,0.2,0,0.3
									c0.1,2.1,0.1,4.1,0.1,6.2c0,2.1,0,4.1,0,6.2c0,2,0.1,4.1,0.3,6.1c0.2,2,0.4,4,0.8,5.9c0.1,0.3,0.1,0.7,0.1,1.1
									c0,0.4,0,0.8,0.1,1.2c0,0.4,0.1,0.7,0.3,0.9c0.2,0.2,0.4,0.3,0.8,0.2c0,0,0,0,0,0s0,0,0,0s0,0,0,0c0,0,0,0,0,0c0,0,0,0,0,0
									c0,0,0,0,0,0c0,0,0,0,0,0c0,0,0,0,0,0c-0.4,0.1-0.7,0-0.8-0.2c-0.2-0.2-0.3-0.5-0.3-0.9c0-0.4-0.1-0.8-0.1-1.2
									c0-0.4,0-0.8-0.1-1.1c-0.4-1.9-0.6-3.9-0.8-5.9c-0.2-2-0.2-4-0.3-6.1c0-2,0-4.1,0-6.2c0-2.1,0-4.1-0.1-6.2
									c0-0.1,0-0.2,0-0.3c0-0.1,0-0.2,0-0.3c0-0.1,0-0.2,0-0.3C351.5,117,351.5,116.9,351.5,116.8 M385.8,107.9c0,0,0.1,0,0.1,0
									c0,0,0.1,0,0.1,0c0,0,0.1,0,0.1,0s0.1,0,0.1,0c0,0-0.1,0-0.1,0c0,0-0.1,0-0.1,0c0,0-0.1,0-0.1,0
									C385.9,107.8,385.8,107.8,385.8,107.9 M382.8,106.8C382.8,106.8,382.8,106.8,382.8,106.8c0,0.1,0,0.1,0,0.1s0,0,0,0.1
									c0,0,0,0,0,0.1c0,0,0,0.1,0,0.1s0,0.1,0,0.1c0,0,0,0.1,0,0.1c0,0,0,0.1,0,0.1c0.1,0.2,0.1,0.3,0.3,0.4
									c0.1,0.1,0.2,0.2,0.4,0.2c0.1,0,0.3,0,0.5,0c0.2,0,0.3,0,0.5-0.1c0.1,0,0.1,0,0.2,0s0.1,0,0.2,0c0.1,0,0.1,0,0.2,0
									c0.1,0,0.1,0,0.2,0c-0.1,0-0.1,0-0.2,0c-0.1,0-0.1,0-0.2,0c-0.1,0-0.1,0-0.2,0s-0.1,0-0.2,0c-0.2,0-0.4,0.1-0.6,0.1
									c-0.2,0-0.4,0-0.5-0.1c-0.2-0.1-0.3-0.2-0.4-0.3c-0.1-0.2-0.2-0.4-0.2-0.7c0,0,0,0,0-0.1c0,0,0,0,0-0.1
									S382.8,106.9,382.8,106.8C382.8,106.8,382.8,106.8,382.8,106.8 M394.9,102.7c0.4-0.1,0.9-0.2,1.3-0.2
									c0.4-0.1,0.9-0.1,1.3-0.2c0.4-0.1,0.8-0.1,1.3-0.2c0.4-0.1,0.8-0.1,1.3-0.2c-0.4,0.1-0.8,0.1-1.3,0.2
									c-0.4,0.1-0.8,0.1-1.3,0.2c-0.4,0.1-0.8,0.1-1.3,0.2C395.8,102.6,395.4,102.7,394.9,102.7 M389.4,103.7
									c-0.2,0-0.4,0.1-0.6,0.1c-0.2,0-0.4,0.1-0.6,0.1c-0.2,0-0.4,0.1-0.6,0.1c-0.2,0-0.4,0.1-0.6,0.1c0.2,0,0.4-0.1,0.6-0.1
									c0.2,0,0.4-0.1,0.6-0.1c0.2,0,0.4-0.1,0.6-0.1C389.1,103.8,389.3,103.7,389.4,103.7 M389.8,103.7L389.8,103.7
									c0.1,0,0.1,0,0.2,0c0.1,0,0.1,0,0.2,0c0.1,0,0.1,0,0.2,0s0.1,0,0.2,0c-0.1,0-0.1,0-0.2,0s-0.1,0-0.2,0c-0.1,0-0.1,0-0.2,0
									C389.9,103.6,389.8,103.6,389.8,103.7 M311.5,109.3c0,0.1,0.1,0.2,0.1,0.3c0,0.1,0.1,0.2,0.1,0.3c0,0.1,0.1,0.2,0.1,0.3
									c0,0.1,0.1,0.2,0.1,0.3c0-0.1-0.1-0.2-0.1-0.3c0-0.1-0.1-0.2-0.1-0.3c0-0.1-0.1-0.2-0.1-0.3
									C311.6,109.5,311.6,109.4,311.5,109.3 M377.2,97.8c-1.2,0.2-2.1,0.8-2.8,1.6c-0.7,0.8-1.3,1.9-1.8,3
									c-0.5,1.2-0.9,2.4-1.4,3.6c-0.5,1.2-1,2.4-1.6,3.3c0.6-1,1.1-2.1,1.6-3.3c0.5-1.2,0.9-2.5,1.4-3.6c0.5-1.2,1.1-2.2,1.8-3
									C375.1,98.6,376,98,377.2,97.8 M377.3,97.8L377.3,97.8C377.3,97.8,377.3,97.8,377.3,97.8C377.3,97.8,377.3,97.8,377.3,97.8
									C377.3,97.8,377.3,97.8,377.3,97.8C377.3,97.8,377.3,97.8,377.3,97.8C377.3,97.8,377.3,97.8,377.3,97.8
									C377.3,97.8,377.3,97.8,377.3,97.8C377.3,97.8,377.3,97.8,377.3,97.8C377.3,97.8,377.3,97.8,377.3,97.8 M360.8,99.3
									L360.8,99.3C360.8,99.3,360.8,99.3,360.8,99.3C360.8,99.3,360.8,99.3,360.8,99.3C360.9,99.3,360.9,99.3,360.8,99.3
									c0.1,0,0.1,0,0.1,0C360.9,99.3,360.9,99.3,360.8,99.3C360.9,99.3,360.9,99.3,360.8,99.3C360.8,99.3,360.8,99.3,360.8,99.3
									C360.8,99.3,360.8,99.3,360.8,99.3 M354.4,98c-0.2,0.1-0.4,0.2-0.6,0.4c-0.2,0.2-0.3,0.4-0.4,0.6c-0.1,0.2-0.2,0.5-0.2,0.8
									c0,0.3-0.1,0.5-0.1,0.8c0-0.3,0-0.5,0.1-0.8c0-0.3,0.1-0.5,0.2-0.8c0.1-0.2,0.2-0.4,0.4-0.6C354,98.2,354.2,98.1,354.4,98
									 M354.7,98C354.7,98,354.7,98,354.7,98C354.7,98,354.7,98,354.7,98C354.7,98,354.7,98,354.7,98C354.7,98,354.7,98,354.7,98
									C354.7,98,354.7,98,354.7,98C354.7,98,354.7,98,354.7,98C354.7,98,354.7,98,354.7,98C354.7,98,354.7,98,354.7,98
									 M266.3,110.5c0.1,0,0.1,0.1,0.2,0.1c0.1,0,0.1,0.1,0.2,0.1c0.1,0,0.1,0.1,0.2,0.1c0.1,0,0.1,0.1,0.2,0.1
									c2.4,1.3,4.9,2.3,7.4,3c2.5,0.7,4.9,1.1,7.4,1.2c2.5,0.2,4.9,0.1,7.4-0.1c2.5-0.2,4.9-0.5,7.4-1c1.2-0.2,2.4-0.4,3.6-0.7
									c1.2-0.2,2.4-0.5,3.6-0.7c1.2-0.3,2.4-0.5,3.6-0.8c1.2-0.3,2.4-0.5,3.6-0.7c0.1,0,0.2,0,0.3-0.1c0.1,0,0.2,0,0.3-0.1
									s0.2,0,0.3-0.1c0.1,0,0.2,0,0.3-0.1c-1.3,0.3-2.6,0.5-3.8,0.8c-1.3,0.3-2.6,0.6-3.9,0.8c-1.3,0.3-2.6,0.5-3.9,0.8
									c-1.3,0.3-2.6,0.5-3.9,0.7c-2.5,0.4-5.1,0.8-7.6,1c-2.5,0.2-5.1,0.2-7.6,0.1c-2.5-0.2-5.1-0.6-7.6-1.3
									C271.3,113,268.8,112,266.3,110.5C266.3,110.5,266.3,110.5,266.3,110.5C266.3,110.5,266.3,110.5,266.3,110.5
									C266.3,110.5,266.3,110.5,266.3,110.5C266.3,110.5,266.3,110.5,266.3,110.5 M303.2,104.4L303.2,104.4c0,0,0.1,0,0.1,0
									c0,0,0.1,0,0.1,0c0,0,0.1,0,0.1,0c0,0,0.1,0,0.1,0c0,0-0.1,0-0.1,0s-0.1,0-0.1,0c0,0-0.1,0-0.1,0
									C303.2,104.4,303.2,104.4,303.2,104.4"/>
								<path class="st10" d="M348.6,96.5c-0.2,0-0.3,0.1-0.5,0.1c-0.2,0-0.3,0.1-0.5,0.1c-0.2,0-0.3,0.1-0.5,0.1
									c-0.2,0-0.3,0.1-0.5,0.1c-0.2,0.2-0.3,0.5-0.5,0.9c-0.1,0.4-0.2,0.8-0.3,1.3c-0.1,0.5-0.1,1-0.2,1.5c0,0.5,0,1,0,1.5
									c0,0.1,0,0.2,0,0.4c0,0.1,0,0.2,0,0.4c0,0.1,0,0.2,0,0.4c0,0.1,0,0.2,0,0.3c0,0.3,0.1,0.6,0.1,0.9c0,0.3,0,0.6,0.1,0.8
									c0,0.3,0,0.5,0,0.7c0,0.2,0,0.4-0.1,0.7c-0.1,0.6-0.3,1.1-0.5,1.5c-0.3,0.4-0.6,0.7-1,1c-0.4,0.3-0.9,0.5-1.4,0.7
									c-0.6,0.2-1.2,0.3-1.9,0.4c-0.1,0-0.1,0-0.2,0c-0.1,0-0.1,0-0.2,0c-0.1,0-0.1,0-0.2,0c-0.1,0-0.1,0-0.2,0
									c-1.8,0.3-3.6,0.6-5.5,0.9c-1.8,0.3-3.7,0.6-5.5,0.9c-1.9,0.3-3.7,0.6-5.6,1c-1.9,0.3-3.8,0.7-5.7,1
									c-0.7,0.1-1.4,0.2-2.1,0.4c-0.7,0.1-1.4,0.3-2.1,0.4c-0.7,0.1-1.4,0.3-2.1,0.4c-0.7,0.1-1.4,0.3-2.1,0.4
									c-1.5,0.3-3.1,0.6-4.6,0.8c-1.5,0.3-3.1,0.6-4.7,0.8c-1.6,0.3-3.1,0.6-4.7,0.9c-1.6,0.3-3.2,0.6-4.8,0.9
									c-2.4,0.4-4.6,1.3-6.5,2.5c-2,1.2-3.7,2.7-5.1,4.5c-1.4,1.8-2.5,3.8-3.3,6.1c-0.7,2.2-1.1,4.6-1,7.1
									c0.1,2.3,0.6,4.4,1.4,6.1c0.8,1.8,2,3.2,3.4,4.3c1.4,1.1,3.1,1.8,5,2.2c1.9,0.4,4,0.3,6.2-0.2c2.4-0.5,4.7-1,7-1.5
									c2.3-0.5,4.6-0.9,6.9-1.4c2.3-0.5,4.5-0.9,6.8-1.4c2.2-0.5,4.5-0.9,6.7-1.4c0.4-0.1,0.9-0.2,1.3-0.3
									c0.4-0.1,0.8-0.2,1.3-0.3c0.4-0.1,0.8-0.2,1.3-0.3c0.4-0.1,0.8-0.2,1.3-0.3c1.4-0.3,2.9-0.6,4.3-0.9
									c1.4-0.3,2.8-0.6,4.2-0.9c1.4-0.3,2.8-0.6,4.2-1c1.4-0.3,2.8-0.6,4.2-1c0,0,0.1,0,0.1,0c0,0,0.1,0,0.1,0s0.1,0,0.1,0
									c0,0,0.1,0,0.1,0c0,0,0,0,0,0c0,0,0,0,0,0c0,0,0,0,0,0s0,0,0,0c1-0.2,1.8-0.3,2.5-0.2c0.7,0.1,1.2,0.3,1.5,0.7
									c0.4,0.4,0.6,1,0.7,1.8c0.1,0.8,0.1,1.8-0.1,3c0,0.3-0.1,0.6-0.1,1c0,0.3-0.1,0.7,0,1.1c0,0.3,0,0.7,0.1,0.9
									c0.1,0.3,0.2,0.5,0.4,0.6c0.1,0,0.1,0.1,0.2,0.1s0.1,0,0.2,0.1c0.1,0,0.2,0,0.3,0c0.1,0,0.2,0,0.3,0c0,0,0,0,0,0
									c0,0,0,0,0,0c0,0,0,0,0,0c0,0,0,0,0,0c0.4-0.1,0.7-0.3,0.9-0.6c0.2-0.3,0.3-0.6,0.4-1c0.1-0.4,0-0.8,0-1.1
									c0-0.4,0-0.8,0-1.1c0-1.2,0-2.4,0-3.6c0-1.2,0-2.4,0-3.6c0-1.2,0-2.4,0-3.5c0-1.2,0-2.4,0-3.5c0-1.3,0-2.5,0-3.8
									c0-1.3,0-2.5,0-3.8c0-1.3,0-2.5,0-3.8c0-1.3,0-2.5,0-3.8c0-1.6,0-3.3,0-4.9c0-1.7,0-3.3,0-5c0-1.7,0-3.4,0-5.1
									C348.6,99.9,348.6,98.2,348.6,96.5"/>
								<path class="st10" d="M317.4,149.7C317.4,149.7,317.3,149.7,317.4,149.7c-0.1,0-0.1,0-0.2,0c0,0-0.1,0-0.1,0s-0.1,0-0.1,0
									c-0.3,0.1-0.5,0.1-0.8,0.2c-0.3,0.1-0.6,0.1-0.8,0.2c-0.3,0.1-0.6,0.1-0.8,0.2c-0.3,0.1-0.6,0.1-0.8,0.2
									c-0.1,0-0.2,0-0.3,0.1c-0.1,0-0.2,0-0.3,0.1s-0.2,0-0.3,0.1c-0.1,0-0.2,0-0.3,0.1c-0.1,0-0.1,0-0.2,0c-0.1,0-0.1,0-0.2,0
									s-0.1,0-0.2,0c-0.1,0-0.1,0-0.2,0c0,0-0.1,0-0.1,0c0,0-0.1,0-0.1,0c0,0-0.1,0-0.1,0c0,0-0.1,0-0.1,0
									c-0.3,0.1-0.5,0.1-0.8,0.2c-0.3,0.1-0.5,0.1-0.8,0.2c-0.3,0.1-0.5,0.1-0.8,0.2c-0.3,0.1-0.5,0.1-0.8,0.2
									c-0.3,0.1-0.6,0.1-0.9,0.2c-0.3,0.1-0.6,0.1-0.9,0.2c-0.3,0.1-0.6,0.1-0.9,0.2c-0.3,0.1-0.6,0.1-0.9,0.2
									c-0.4,0.1-0.8,0.2-1.1,0.3c-0.4,0.1-0.8,0.2-1.2,0.3c-0.4,0.1-0.8,0.2-1.2,0.3c-0.4,0.1-0.8,0.2-1.2,0.3
									c-0.2,0-0.4,0.1-0.7,0.1c-0.2,0-0.4,0.1-0.7,0.1c-0.2,0-0.4,0.1-0.7,0.1c-0.2,0-0.4,0.1-0.7,0.1c-0.1,0-0.1,0-0.2,0
									c-0.1,0-0.1,0-0.2,0c-0.1,0-0.1,0-0.2,0c-0.1,0-0.1,0-0.2,0c0,0,0,0-0.1,0c0,0,0,0-0.1,0c0,0,0,0-0.1,0s0,0-0.1,0
									c-0.2,0-0.4,0.1-0.7,0.1c-0.2,0-0.4,0.1-0.7,0.1c-0.2,0-0.4,0.1-0.7,0.1c-0.2,0-0.4,0.1-0.7,0.1c-0.2,0.1-0.5,0.1-0.7,0.2
									c-0.2,0.1-0.5,0.1-0.7,0.1c-0.2,0-0.5,0.1-0.7,0.1c-0.2,0-0.5,0.1-0.7,0.1c0,0,0,0,0,0c0,0,0,0,0,0c0,0,0,0,0,0c0,0,0,0,0,0
									l0,0c0,0-0.1,0-0.1,0c0,0-0.1,0-0.1,0c0,0-0.1,0-0.1,0c0,0-0.1,0-0.1,0c-0.3,0.1-0.7,0.2-1,0.4c-0.3,0.2-0.6,0.3-0.8,0.5
									c-0.3,0.2-0.5,0.5-0.7,0.7c-0.2,0.3-0.4,0.6-0.6,1c0,0.1-0.1,0.2-0.1,0.2c0,0.1-0.1,0.2-0.1,0.2c0,0.1-0.1,0.2-0.1,0.3
									s-0.1,0.2-0.1,0.3c-0.9,2.6-1.8,5.1-2.7,7.6c-0.9,2.5-1.8,5.1-2.8,7.6c-0.9,2.5-1.8,5.1-2.8,7.6c-0.9,2.5-1.8,5.1-2.7,7.7
									c0,0,0,0.1,0,0.1s0,0.1,0,0.1s0,0.1,0,0.1c0,0,0,0.1,0,0.1c0,0.1,0,0.1-0.1,0.2c0,0.1,0,0.1-0.1,0.2c0,0.1,0,0.1-0.1,0.2
									c0,0.1,0,0.1,0,0.2c-0.2,0.7-0.2,1.2-0.2,1.7c0,0.5,0.2,0.8,0.5,1.1c0.3,0.3,0.6,0.4,1.1,0.5c0.5,0.1,1,0,1.7-0.1
									c0,0,0,0,0.1,0c0,0,0,0,0.1,0c0,0,0,0,0.1,0c0,0,0,0,0.1,0c0,0,0,0,0,0c0,0,0,0,0,0c0,0,0,0,0,0c0,0,0,0,0,0c0,0,0,0,0,0
									c0,0,0,0,0,0c0,0,0,0,0,0s0,0,0,0c0.1,0,0.3-0.1,0.4-0.1c0.1,0,0.3-0.1,0.4-0.1c0.1,0,0.3-0.1,0.4-0.1
									c0.1,0,0.3-0.1,0.4-0.1c0.4-0.1,0.8-0.2,1.2-0.3c0.4-0.1,0.8-0.2,1.2-0.3c0.4-0.1,0.8-0.2,1.2-0.3c0.4-0.1,0.8-0.2,1.2-0.3
									c0,0,0.1,0,0.1,0c0,0,0.1,0,0.1,0c0,0,0.1,0,0.1,0c0,0,0.1,0,0.1,0c0.4-0.1,0.8-0.2,1.2-0.3c0.4-0.1,0.8-0.2,1.2-0.3
									c0.4-0.1,0.8-0.2,1.2-0.3c0.4-0.1,0.8-0.2,1.2-0.3c0.1,0,0.1,0,0.2,0c0.1,0,0.1,0,0.2,0c0.1,0,0.1,0,0.2,0
									c0.1,0,0.1,0,0.2,0l0,0c0,0,0.1,0,0.1,0s0.1,0,0.1,0s0.1,0,0.1,0c0,0,0.1,0,0.1,0c0.4-0.1,0.8-0.2,1.2-0.3
									c0.4-0.1,0.8-0.2,1.2-0.3c0.4-0.1,0.8-0.2,1.2-0.3c0.4-0.1,0.8-0.2,1.2-0.3c0.1,0,0.2,0,0.3-0.1c0.1,0,0.2,0,0.3-0.1
									c0.1,0,0.2,0,0.3-0.1c0.1,0,0.2,0,0.3-0.1c0.5-0.1,1.1-0.3,1.6-0.4c0.5-0.1,1.1-0.3,1.6-0.4c0.5-0.1,1.1-0.3,1.6-0.4
									c0.5-0.1,1.1-0.3,1.6-0.4c0,0,0,0,0,0s0,0,0,0c0,0,0,0,0,0c0,0,0,0,0,0l0,0c0,0,0,0,0.1,0c0,0,0,0,0.1,0c0,0,0,0,0.1,0
									c0,0,0,0,0.1,0c0.5-0.2,1-0.3,1.5-0.6c0.5-0.2,0.9-0.5,1.3-0.8c0.4-0.3,0.7-0.7,1-1.1c0.3-0.4,0.6-0.9,0.9-1.4
									c0.1-0.1,0.1-0.3,0.2-0.4c0.1-0.1,0.1-0.3,0.2-0.4c0.1-0.1,0.1-0.3,0.2-0.4c0.1-0.1,0.1-0.3,0.2-0.4
									c0.8-2.4,1.6-4.8,2.4-7.3c0.8-2.4,1.6-4.8,2.5-7.2c0.8-2.4,1.6-4.8,2.5-7.2c0.8-2.4,1.7-4.8,2.5-7.2c0,0,0-0.1,0-0.1
									c0,0,0-0.1,0-0.1c0,0,0-0.1,0-0.1c0,0,0-0.1,0-0.1c0.2-0.6,0.3-1.1,0.4-1.5c0-0.4,0-0.7-0.1-0.9c-0.1-0.2-0.3-0.4-0.5-0.5
									c-0.2-0.1-0.5-0.1-0.9-0.1c-0.1,0-0.1,0-0.2,0s-0.1,0-0.2,0c-0.1,0-0.2,0-0.2,0c-0.1,0-0.2,0-0.3,0.1
									C317.5,149.6,317.5,149.6,317.4,149.7C317.5,149.6,317.4,149.6,317.4,149.7C317.4,149.7,317.4,149.7,317.4,149.7
									C317.4,149.7,317.4,149.7,317.4,149.7L317.4,149.7"/>
								<path class="st10" d="M377.3,97.8C377.3,97.8,377.3,97.8,377.3,97.8C377.2,97.8,377.2,97.8,377.3,97.8
									C377.2,97.8,377.2,97.8,377.3,97.8C377.2,97.8,377.2,97.8,377.3,97.8c-1.3,0.2-2.2,0.8-2.9,1.7c-0.7,0.8-1.3,1.9-1.8,3
									c-0.5,1.2-0.9,2.4-1.4,3.6c-0.5,1.2-1,2.4-1.6,3.3c-0.2,0.3-0.4,0.6-0.6,0.8c-0.2,0.3-0.5,0.5-0.7,0.7
									c-0.3,0.2-0.5,0.4-0.8,0.6c-0.3,0.2-0.6,0.3-1,0.4c-0.2,0-0.3,0.1-0.4,0.2c-0.1,0.1-0.2,0.2-0.3,0.3
									c-0.1,0.1-0.2,0.3-0.2,0.5c-0.1,0.2-0.1,0.3-0.2,0.5c0,0.1,0,0.2-0.1,0.3c0,0.1,0,0.2,0,0.3c0,0.1,0,0.2,0,0.3
									c0,0.1,0,0.2,0,0.3c0,0,0,0.1,0,0.1s0,0.1,0,0.1c0,0,0,0.1,0,0.1c0,0,0,0.1,0,0.1c0,0.1,0,0.2,0,0.3c0,0.1,0,0.2,0,0.3
									c0,0.1,0,0.2,0,0.3c0,0.1,0,0.2,0,0.3c0,0.4,0,0.8,0,1.2c0,0.4,0,0.8-0.1,1.2c0,0.4,0,0.8-0.1,1.2c0,0.4,0,0.8,0,1.2
									c0,0.8,0,1.6,0.1,2.3c0.1,0.7,0.3,1.4,0.6,1.9c0.3,0.6,0.8,1,1.4,1.4c0.6,0.4,1.4,0.6,2.4,0.7c0.2,0,0.4,0.1,0.6,0.2
									c0.2,0.1,0.4,0.3,0.5,0.5c0.2,0.2,0.3,0.4,0.4,0.6c0.1,0.2,0.2,0.5,0.3,0.7c0,0.1,0,0.1,0.1,0.2s0,0.1,0.1,0.2
									c0,0.1,0,0.1,0.1,0.2c0,0.1,0,0.1,0.1,0.2c0,0,0,0,0,0s0,0,0,0c0,0,0,0,0,0c0,0,0,0,0,0c0.3,0.7,0.6,1.3,0.9,1.7
									c0.3,0.4,0.7,0.8,1.1,1c0.4,0.2,0.9,0.4,1.3,0.4c0.5,0.1,1,0,1.5-0.1c0,0,0,0,0.1,0c0,0,0,0,0.1,0c0,0,0,0,0.1,0
									c0,0,0,0,0.1,0l0,0c0,0,0,0,0.1,0s0,0,0.1,0c0,0,0,0,0.1,0s0,0,0.1,0c0.3-0.1,0.6-0.1,0.8-0.2c0.3-0.1,0.6-0.2,0.9-0.3
									c0.3-0.1,0.6-0.3,0.9-0.4c0.3-0.1,0.6-0.3,0.9-0.5c-0.2-0.5-0.3-1.1-0.5-1.6c-0.2-0.5-0.3-1.1-0.4-1.6
									c-0.1-0.5-0.3-1.1-0.4-1.6c-0.1-0.5-0.2-1.1-0.3-1.6c-0.1-0.8-0.3-1.6-0.4-2.4c-0.1-0.8-0.2-1.6-0.3-2.4
									c-0.1-0.8-0.1-1.6-0.1-2.4c0-0.8,0-1.6,0-2.5c0-1.2,0.1-2.5,0.2-3.7c0.1-1.2,0.3-2.5,0.5-3.7c0.2-1.3,0.4-2.5,0.7-3.8
									c0.3-1.3,0.6-2.6,1-3.8c0.1-0.2,0.1-0.4,0.1-0.5c0-0.2,0.1-0.3,0.1-0.5c0-0.1,0-0.3,0.1-0.4c0-0.1,0-0.2,0-0.3
									c0-0.3,0-0.5-0.1-0.7c-0.1-0.2-0.2-0.3-0.4-0.4c-0.2-0.1-0.4-0.1-0.7-0.1c-0.3,0-0.6,0-1,0c-0.1,0-0.2,0-0.3,0
									c-0.1,0-0.2,0-0.3,0c-0.1,0-0.2,0-0.3,0C377.5,97.7,377.4,97.7,377.3,97.8C377.3,97.8,377.3,97.8,377.3,97.8
									C377.3,97.8,377.3,97.8,377.3,97.8C377.3,97.8,377.3,97.8,377.3,97.8C377.3,97.8,377.3,97.8,377.3,97.8"/>
								<path class="st10" d="M303.2,104.4C303.1,104.4,303.1,104.4,303.2,104.4c-0.1,0-0.1,0-0.2,0s-0.1,0-0.1,0c0,0-0.1,0-0.1,0
									c-1.3,0.2-2.5,0.5-3.8,0.7c-1.3,0.2-2.5,0.4-3.8,0.7c-1.3,0.2-2.6,0.4-3.8,0.7c-1.3,0.2-2.6,0.4-3.9,0.6
									c-1.7,0.3-3.5,0.6-5.2,0.9c-1.8,0.3-3.5,0.6-5.3,0.9c-1.8,0.3-3.6,0.6-5.3,0.9c-1.8,0.3-3.6,0.6-5.4,0.9c0,0,0,0,0,0
									c0,0,0,0,0,0s0,0,0,0s0,0,0,0c2.5,1.4,5,2.5,7.5,3.2c2.5,0.7,5,1.1,7.6,1.3c2.5,0.2,5,0.1,7.6-0.1c2.5-0.2,5-0.6,7.6-1
									c1.3-0.2,2.6-0.5,3.9-0.7c1.3-0.3,2.6-0.5,3.9-0.8c1.3-0.3,2.6-0.6,3.9-0.8c1.3-0.3,2.6-0.5,3.8-0.8c0,0,0-0.1,0-0.1
									c0,0,0-0.1,0-0.1c0,0,0-0.1,0-0.1c0,0,0-0.1,0-0.1c0-0.1-0.1-0.2-0.1-0.3c0-0.1-0.1-0.2-0.1-0.3c0-0.1-0.1-0.2-0.1-0.3
									c0-0.1-0.1-0.2-0.1-0.3c-0.4-1.1-0.8-1.9-1.3-2.6c-0.5-0.7-1.1-1.2-1.8-1.6c-0.7-0.4-1.4-0.6-2.2-0.7
									c-0.8-0.1-1.7-0.1-2.7,0c0,0-0.1,0-0.1,0c0,0-0.1,0-0.1,0c0,0-0.1,0-0.1,0C303.2,104.4,303.2,104.4,303.2,104.4"/>
								<path class="st10" d="M354.7,98C354.6,98,354.6,98,354.7,98c-0.1,0-0.1,0-0.1,0s0,0-0.1,0s0,0-0.1,0
									c-0.2,0.1-0.4,0.2-0.6,0.4c-0.2,0.2-0.3,0.4-0.4,0.6c-0.1,0.2-0.2,0.5-0.2,0.8c0,0.3-0.1,0.5-0.1,0.8c0,0,0,0,0,0.1
									c0,0,0,0,0,0.1c0,0,0,0,0,0.1c0,0,0,0,0,0.1c0,0.1,0,0.2,0,0.3s0,0.2,0,0.3c0,0.1,0,0.2,0,0.3c0,0.1,0,0.2,0,0.3
									c0,0.1,0,0.1,0,0.2c0,0.1,0,0.1,0,0.2s0,0.1,0,0.2c0,0.1,0,0.1,0,0.2c0,1.1-0.2,2.2-0.3,3.4c-0.1,1.1-0.3,2.2-0.5,3.4
									c-0.2,1.1-0.4,2.2-0.5,3.4c-0.1,1.1-0.3,2.3-0.3,3.4c0,0.1,0,0.1,0,0.2s0,0.1,0,0.2c0,0.1,0,0.1,0,0.2c0,0.1,0,0.1,0,0.2
									c0,0.1,0,0.2,0,0.3c0,0.1,0,0.2,0,0.3c0,0.1,0,0.2,0,0.3c0,0.1,0,0.2,0,0.3c0.1,2.1,0.1,4.1,0.1,6.2c0,2.1,0,4.1,0,6.2
									c0,2,0.1,4.1,0.3,6.1c0.2,2,0.4,4,0.8,5.9c0.1,0.3,0.1,0.7,0.1,1.1c0,0.4,0,0.8,0.1,1.2c0,0.4,0.1,0.7,0.3,0.9
									c0.2,0.2,0.4,0.3,0.8,0.2c0,0,0,0,0,0c0,0,0,0,0,0c0,0,0,0,0,0c0,0,0,0,0,0h0c0,0,0,0,0,0c0,0,0,0,0,0c0,0,0,0,0,0
									c0,0,0,0,0,0c0.4-0.1,0.7-0.3,0.9-0.5c0.2-0.2,0.4-0.5,0.5-0.8c0.1-0.3,0.2-0.7,0.2-1.1c0-0.4,0-0.7,0-1.1c0,0,0-0.1,0-0.1
									c0,0,0-0.1,0-0.1c0,0,0-0.1,0-0.1s0-0.1,0-0.1c0,0,0,0,0,0s0,0,0,0s0,0,0,0s0,0,0,0c0-0.2,0-0.4,0-0.6c0-0.2,0-0.4,0-0.6
									c0-0.2,0-0.4,0-0.6c0-0.2,0-0.4,0-0.6c0-0.3,0-0.6,0-0.9c0-0.3,0-0.6,0-0.9c0-0.3,0-0.6,0-0.9c0-0.3,0-0.6,0-0.9
									c0-0.4,0-0.9,0-1.3c0-0.4,0-0.9,0-1.3c0-0.4,0-0.9,0-1.3c0-0.4,0-0.9,0-1.3c0-0.7,0-1.4,0-2.1c0-0.7,0-1.4,0-2.1
									c0-0.7,0-1.4,0-2.1c0-0.7,0-1.4,0-2.1c0-0.6,0-1.1,0-1.7c0-0.6,0-1.1,0-1.7c0-0.6,0-1.1,0-1.7c0-0.6,0-1.1,0-1.7
									c0-1.2,0-2.4,0-3.6c0-1.2,0-2.4,0-3.6c0-1.2,0-2.4,0-3.6c0-1.2,0-2.4,0-3.6c0-0.3,0-0.7,0-1c0-0.3,0-0.7-0.1-1
									c-0.1-0.3-0.2-0.5-0.4-0.7C355.4,98,355.1,97.9,354.7,98C354.7,98,354.7,98,354.7,98C354.7,98,354.7,98,354.7,98
									C354.7,98,354.7,98,354.7,98C354.7,98,354.7,98,354.7,98L354.7,98"/>
								<path class="st10" d="M360.8,99.3C360.8,99.3,360.8,99.3,360.8,99.3C360.8,99.3,360.8,99.3,360.8,99.3
									C360.8,99.3,360.8,99.3,360.8,99.3C360.8,99.3,360.8,99.3,360.8,99.3c-0.1,0-0.2,0-0.2,0.1c-0.1,0-0.1,0-0.2,0.1
									s-0.1,0.1-0.2,0.1c-0.1,0-0.1,0.1-0.1,0.1c-0.2,0.2-0.3,0.4-0.4,0.6c-0.1,0.2-0.2,0.5-0.2,0.8c-0.1,0.3-0.1,0.6-0.1,0.9
									c0,0.3,0,0.6,0,0.9c0,3.1-0.1,6.2-0.1,9.2c0,3.1-0.1,6.1-0.1,9.2c0,3-0.1,6.1-0.1,9.1c0,3-0.1,6-0.1,9c0,0.3,0,0.7,0,1
									c0,0.3,0.1,0.6,0.1,0.9c0.1,0.3,0.2,0.5,0.3,0.7c0.2,0.2,0.3,0.3,0.6,0.3c0,0,0,0,0.1,0c0,0,0,0,0.1,0c0,0,0,0,0.1,0
									c0,0,0,0,0.1,0c0,0,0,0,0,0c0,0,0,0,0,0c0,0,0,0,0,0s0,0,0,0c0.3-0.1,0.6-0.2,0.8-0.5c0.2-0.2,0.3-0.5,0.4-0.8
									c0.1-0.3,0.2-0.7,0.2-1c0-0.4,0.1-0.7,0.1-1.1c0-0.5,0-1,0-1.6c0-0.5,0-1,0-1.6c0-0.5,0-1,0-1.6c0-0.5,0-1,0-1.6
									c0-1,0-2,0-3c0-1,0-2,0-3c0-1,0-2,0-3c0-1,0-2,0-3c0-0.5,0-1,0-1.5c0-0.5,0-1,0-1.5c0-0.5,0-1,0-1.5c0-0.5,0-1,0-1.6
									c0-1,0-2,0-3c0-1,0-2,0-3c0-1,0-2,0-3c0-1,0-2,0-3c0-0.3,0-0.7,0-1c0-0.3-0.1-0.7-0.2-1c-0.1-0.3-0.2-0.5-0.4-0.7
									c-0.2-0.2-0.4-0.3-0.7-0.2C360.9,99.3,360.9,99.3,360.8,99.3C360.9,99.3,360.9,99.3,360.8,99.3
									C360.8,99.3,360.8,99.3,360.8,99.3C360.8,99.3,360.8,99.3,360.8,99.3L360.8,99.3"/>
								<path class="st10" d="M389.8,103.7C389.7,103.7,389.7,103.7,389.8,103.7c-0.1,0-0.1,0-0.2,0c0,0-0.1,0-0.1,0
									c0,0-0.1,0-0.1,0c-0.2,0-0.4,0.1-0.6,0.1c-0.2,0-0.4,0.1-0.6,0.1c-0.2,0-0.4,0.1-0.6,0.1c-0.2,0-0.4,0.1-0.6,0.1
									c-0.2,0-0.4,0.1-0.7,0.1c-0.2,0-0.4,0.1-0.7,0.1c-0.2,0-0.4,0.1-0.7,0.1c-0.2,0-0.4,0.1-0.7,0.1c-0.2,0-0.4,0.1-0.6,0.2
									c-0.2,0.1-0.4,0.3-0.5,0.4c-0.2,0.2-0.3,0.4-0.4,0.6c-0.1,0.2-0.1,0.5-0.1,0.8c0,0,0,0,0,0.1c0,0,0,0,0,0.1s0,0,0,0.1
									c0,0,0,0,0,0.1c0,0.3,0.1,0.5,0.2,0.7c0.1,0.2,0.2,0.3,0.4,0.3c0.2,0.1,0.3,0.1,0.5,0.1c0.2,0,0.4,0,0.6-0.1
									c0.1,0,0.1,0,0.2,0s0.1,0,0.2,0c0.1,0,0.1,0,0.2,0c0.1,0,0.1,0,0.2,0c0,0,0.1,0,0.1,0s0.1,0,0.1,0s0.1,0,0.1,0
									c0,0,0.1,0,0.1,0c0,0,0.1,0,0.1,0c0,0,0.1,0,0.1,0c0,0,0.1,0,0.1,0c0,0,0.1,0,0.1,0c0.2,0,0.3-0.1,0.5-0.1
									c0.2,0,0.3-0.1,0.5-0.1c0.2,0,0.3-0.1,0.5-0.1c0.2,0,0.3-0.1,0.5-0.1c0.3-0.1,0.7-0.1,1-0.2c0.3-0.1,0.7-0.1,1-0.2
									c0.3-0.1,0.7-0.1,1-0.2c0.3-0.1,0.7-0.1,1-0.2c0.2,0,0.5-0.1,0.7-0.1c0.2,0,0.5-0.1,0.7-0.1c0.2,0,0.5-0.1,0.7-0.1
									c0.2,0,0.5-0.1,0.7-0.1c0.1,0,0.3-0.1,0.4-0.1c0.1,0,0.3-0.1,0.4-0.1c0.1,0,0.3-0.1,0.4-0.1c0.1,0,0.3-0.1,0.4-0.1
									c0.2,0,0.5-0.1,0.7-0.1c0.2,0,0.5-0.1,0.7-0.1c0.2,0,0.5-0.1,0.7-0.1c0.2,0,0.5-0.1,0.7-0.1c0.2,0,0.5-0.1,0.7-0.2
									c0.2-0.1,0.4-0.2,0.6-0.4c0.2-0.2,0.3-0.4,0.4-0.6c0.1-0.2,0.2-0.5,0.2-0.9c0-0.2,0-0.4-0.1-0.6c-0.1-0.2-0.2-0.3-0.3-0.5
									c-0.1-0.1-0.3-0.2-0.5-0.3c-0.2,0-0.4-0.1-0.6,0c-0.4,0.1-0.8,0.1-1.3,0.2c-0.4,0.1-0.8,0.1-1.3,0.2
									c-0.4,0.1-0.8,0.1-1.3,0.2c-0.4,0.1-0.9,0.1-1.3,0.2c-0.4,0.1-0.7,0.1-1.1,0.2c-0.4,0.1-0.8,0.1-1.1,0.2
									c-0.4,0.1-0.8,0.1-1.1,0.2c-0.4,0.1-0.8,0.1-1.1,0.2c-0.1,0-0.1,0-0.2,0s-0.1,0-0.2,0c-0.1,0-0.1,0-0.2,0
									C389.9,103.6,389.8,103.6,389.8,103.7"/>
								<path class="st10" d="M392.1,109.9c-0.1,0-0.2,0-0.4,0.1c-0.1,0-0.2,0-0.4,0.1c-0.1,0-0.2,0-0.4,0.1c-0.1,0-0.2,0-0.4,0.1
									c0,0,0,0,0,0c0,0,0,0,0,0c0,0,0,0,0,0c0,0,0,0,0,0c-0.1,0-0.2,0-0.4,0.1c-0.1,0-0.2,0-0.4,0.1c-0.1,0-0.2,0-0.4,0.1
									c-0.1,0-0.2,0-0.4,0.1c-0.3,0-0.5,0.1-0.8,0.2c-0.3,0.1-0.5,0.2-0.7,0.4c-0.2,0.2-0.4,0.4-0.5,0.6c-0.1,0.3-0.2,0.6-0.2,1
									c0,0,0,0,0,0c0,0,0,0,0,0c0,0,0,0,0,0c0,0,0,0,0,0c0,0.3,0.1,0.6,0.2,0.8c0.1,0.2,0.3,0.3,0.5,0.4c0.2,0.1,0.4,0.1,0.6,0.1
									c0.2,0,0.5,0,0.7-0.1c0.6-0.1,1.2-0.2,1.8-0.3c0.6-0.1,1.2-0.2,1.8-0.3c0.6-0.1,1.2-0.2,1.8-0.3c0.6-0.1,1.2-0.2,1.8-0.3
									c0.6-0.1,1.2-0.2,1.8-0.3c0.6-0.1,1.2-0.2,1.8-0.3c0.6-0.1,1.2-0.2,1.8-0.3c0.6-0.1,1.2-0.2,1.8-0.4c0.2,0,0.4-0.1,0.7-0.2
									c0.2-0.1,0.4-0.2,0.6-0.3c0.2-0.1,0.3-0.3,0.5-0.6c0.1-0.2,0.2-0.5,0.2-0.9c0-0.3,0-0.6-0.1-0.8c-0.1-0.2-0.2-0.4-0.4-0.5
									c-0.2-0.1-0.3-0.2-0.6-0.2c-0.2,0-0.4,0-0.7,0c-0.4,0.1-0.8,0.1-1.1,0.2c-0.4,0.1-0.8,0.1-1.1,0.2c-0.4,0.1-0.8,0.1-1.1,0.2
									c-0.4,0.1-0.8,0.1-1.1,0.2c-0.2,0-0.5,0.1-0.7,0.1c-0.2,0-0.5,0.1-0.7,0.1c-0.2,0-0.5,0.1-0.7,0.1c-0.2,0-0.5,0.1-0.7,0.1
									c-0.3,0.1-0.7,0.1-1,0.2c-0.3,0.1-0.7,0.1-1,0.2c-0.3,0.1-0.7,0.1-1,0.2C392.8,109.8,392.5,109.9,392.1,109.9"/>
								<path class="st10" d="M388.8,118.3c-0.1,0-0.2,0-0.4,0.1c-0.1,0-0.2,0-0.4,0.1c-0.1,0-0.2,0.1-0.4,0.1
									c-0.1,0-0.2,0.1-0.4,0.1c0,0-0.1,0-0.1,0s-0.1,0-0.1,0s-0.1,0-0.1,0s-0.1,0-0.1,0c0,0-0.1,0-0.1,0s-0.1,0-0.1,0
									c0,0-0.1,0-0.1,0s-0.1,0-0.1,0c-0.1,0-0.1,0-0.2,0s-0.1,0-0.2,0c-0.1,0-0.1,0-0.2,0c-0.1,0-0.1,0-0.2,0
									c-0.2,0-0.5,0.1-0.7,0.2c-0.2,0.1-0.5,0.1-0.7,0.3c-0.2,0.1-0.4,0.3-0.5,0.5c-0.1,0.2-0.2,0.5-0.2,0.9c0,0,0,0,0,0
									c0,0,0,0,0,0s0,0,0,0c0,0,0,0,0,0c0,0.4,0.1,0.7,0.2,0.9c0.1,0.2,0.3,0.4,0.5,0.5c0.2,0.1,0.4,0.2,0.7,0.2
									c0.3,0,0.5,0,0.8-0.1c1.2-0.2,2.5-0.5,3.7-0.7c1.2-0.2,2.4-0.5,3.6-0.7c1.2-0.2,2.4-0.5,3.6-0.7c1.2-0.2,2.4-0.5,3.6-0.7
									c0.2-0.1,0.5-0.1,0.7-0.3c0.2-0.1,0.4-0.3,0.6-0.5c0.2-0.2,0.3-0.4,0.4-0.6c0.1-0.2,0.2-0.5,0.2-0.8c0,0,0,0,0,0
									c0,0,0,0,0,0s0,0,0,0c0,0,0,0,0,0c0-0.3,0-0.6-0.1-0.7c-0.1-0.2-0.3-0.3-0.4-0.4c-0.2-0.1-0.4-0.1-0.6-0.1
									c-0.2,0-0.4,0-0.7,0.1c-0.4,0.1-0.8,0.1-1.2,0.2c-0.4,0.1-0.8,0.2-1.2,0.2c-0.4,0.1-0.8,0.2-1.2,0.2
									c-0.4,0.1-0.8,0.2-1.2,0.2c-0.1,0-0.2,0-0.3,0.1s-0.2,0-0.3,0.1c-0.1,0-0.2,0-0.3,0.1c-0.1,0-0.2,0-0.3,0.1
									c-0.1,0-0.2,0-0.3,0.1c-0.1,0-0.2,0-0.3,0.1c-0.1,0-0.2,0-0.3,0.1c-0.1,0-0.2,0-0.3,0.1c-0.3,0.1-0.7,0.1-1,0.2
									c-0.3,0.1-0.7,0.1-1,0.2c-0.3,0.1-0.7,0.1-1,0.2C389.5,118.1,389.1,118.2,388.8,118.3"/>
							</g>
						</g>
					</g>
				</g>
			</g>
		</g>
	</g>
</g>
<g>
	<g>
		<g class="st6">
			<defs>
				<polygon id="SVGID_3_" class="st6" points="401,142.6 398.4,96.8 597.5,55.6 596.6,92.9 				"/>
			</defs>
			<clipPath id="SVGID_4_">
				<use xlink:href="#SVGID_3_"  style="overflow:visible;"/>
			</clipPath>
			<g class="st11">
				<g>
					<g>
						<g>
							<polyline class="st12" points="417.8,126.3 400.3,130.5 401,142.6 418.4,138.1 417.8,126.3 							"/>
							<polyline class="st12" points="520.4,101.5 500.1,106.4 500.3,117.4 520.4,112.2 520.4,101.5 							"/>
							<polyline class="st12" points="526.3,100.1 526.4,110.7 596.4,88.9 596.5,86.8 526.3,100.1 							"/>
							<polyline class="st12" points="491,108.6 468.8,114 469.1,125.3 491.2,119.7 491,108.6 							"/>
							<polyline class="st12" points="434,105.3 417,109.1 417.6,121.2 434.5,117.1 434,105.3 							"/>
							<polyline class="st12" points="491.1,92.5 482.6,94.4 482.9,105.7 491.3,103.7 491.1,92.5 							"/>
							<polyline class="st12" points="462.5,115.5 428.7,123.7 429.2,135.4 462.9,126.9 462.5,115.5 							"/>
							<polyline class="st12" points="478.4,96 444.7,103.6 445.1,114.4 478.7,106.5 478.4,96 							"/>
							<polyline class="st12" points="498.4,91.5 498.6,101.8 597.1,75.2 597.1,72.8 498.4,91.5 							"/>
							<polyline class="st12" points="464.7,83.1 422.9,91.8 423.5,103.5 465.1,94.4 464.7,83.1 							"/>
							<polyline class="st12" points="508.9,73.9 471,81.8 471.3,93 509,84.7 508.9,73.9 							"/>
							<polyline class="st12" points="516.8,72.3 516.8,83 597,64.9 597.1,63.1 516.8,72.3 							"/>
						</g>
					</g>
				</g>
			</g>
		</g>
	</g>
</g>
</svg>
